<svg version="1.1" xmlns="http://www.w3.org/2000/svg" xmlns:xlink="http://www.w3.org/1999/xlink" width="46" height="46" viewBox="0,0,46,46"><defs><radialGradient cx="240" cy="180" r="23" gradientUnits="userSpaceOnUse" id="color-1"><stop offset="0" stop-color="#000000"/><stop offset="1" stop-color="#000000" stop-opacity="0"/></radialGradient></defs><g transform="translate(-217,-157)"><g data-paper-data="{&quot;isPaintingLayer&quot;:true}" fill-rule="nonzero" stroke-linecap="butt" stroke-linejoin="miter" stroke-miterlimit="10" stroke-dasharray="" stroke-dashoffset="0" style="mix-blend-mode: normal"><path d="M217,180c0,-12.70255 10.29745,-23 23,-23c12.70255,0 23,10.29745 23,23c0,12.70255 -10.29745,23 -23,23c-12.70255,0 -23,-10.29745 -23,-23z" fill="url(#color-1)" stroke="none" stroke-width="0"/><path d="M236,180c0,-2.20914 1.79086,-4 4,-4c2.20914,0 4,1.79086 4,4c0,2.20914 -1.79086,4 -4,4c-2.20914,0 -4,-1.79086 -4,-4z" fill="#000000" stroke="none" stroke-width="none"/><g fill="none" stroke="#000000" stroke-width="0.5"><path d="M242.59584,184.53238c-0.76466,0.43889 -1.65094,0.68984 -2.59584,0.68984c-0.7421,0 -1.44805,-0.15479 -2.08732,-0.43385"/><path d="M236.30629,183.69162c-0.94442,-0.94495 -1.52851,-2.25008 -1.52851,-3.69162c0,-0.18986 0.01013,-0.37734 0.02988,-0.56196"/><path d="M235.30562,177.70942c0.84865,-1.73599 2.63188,-2.93164 4.69438,-2.93164c0.26427,0 0.52396,0.01963 0.77768,0.05751"/><path d="M241.57871,175.02065c1.52899,0.48433 2.75337,1.65342 3.3131,3.14724"/><path d="M245.17143,179.26879c0.03348,0.23893 0.05079,0.48305 0.05079,0.73121c0,1.68553 -0.79853,3.18455 -2.03792,4.13939"/></g><g fill="none" stroke="#9800ff" stroke-width="1.5"><path d="M251.53798,177.35473c0.19329,0.84859 0.29536,1.73188 0.29536,2.63901c0,2.33518 -0.67641,4.51237 -1.84398,6.34634"/><path d="M248.43225,188.29585c-2.14633,2.17976 -5.13147,3.53122 -8.43225,3.53122c-0.63434,0 -1.25702,-0.04991 -1.86433,-0.14603"/><path d="M235.84852,191.07836c-3.34888,-1.25481 -5.97753,-3.98377 -7.09591,-7.39685"/><path d="M228.23788,181.29939c-0.04706,-0.42874 -0.07121,-0.86438 -0.07121,-1.30565c0,-2.04248 0.51747,-3.9641 1.42845,-5.6409"/><path d="M230.79221,172.56044c2.0619,-2.55093 5.16231,-4.22773 8.65835,-4.38751"/><path d="M241.84413,168.30325c3.995,0.62515 7.32738,3.24902 8.94197,6.81642"/></g><g fill="none" stroke="#000000" stroke-width="0.5"><path d="M245.45907,170.76914c0.6784,0.40203 1.32275,0.88567 1.91912,1.45127c1.53521,1.456 2.54482,3.2582 3.02253,5.1693"/><path d="M250.71564,179.63283c0.09478,2.77017 -0.87799,5.57533 -2.93606,7.74536c-0.39552,0.41703 -0.81658,0.79529 -1.25843,1.13462"/><path d="M244.69888,189.64068c-2.91301,1.41926 -6.34609,1.44589 -9.28728,0.05306"/><path d="M233.52458,188.54686c-0.31121,-0.23638 -0.61267,-0.49213 -0.90278,-0.76727c-1.34279,-1.27351 -2.28347,-2.81185 -2.81784,-4.45626"/><path d="M229.37198,181.41875c-0.39144,-2.94609 0.43931,-6.02989 2.51408,-8.42791"/><path d="M233.46416,171.49848c2.90191,-2.23664 6.70469,-2.79144 10.05672,-1.62862"/></g></g></g></svg>