<svg version="1.1" xmlns="http://www.w3.org/2000/svg" xmlns:xlink="http://www.w3.org/1999/xlink" width="169.11908" height="194.5" viewBox="0,0,169.11908,194.5"><defs><radialGradient cx="249.49408" cy="195" r="34.5" gradientUnits="userSpaceOnUse" id="color-1"><stop offset="0" stop-color="#3800ff"/><stop offset="1" stop-color="#ca00ff"/></radialGradient><radialGradient cx="249.49408" cy="195" r="34.5" gradientUnits="userSpaceOnUse" id="color-2"><stop offset="0" stop-color="#3800ff"/><stop offset="1" stop-color="#ca00ff"/></radialGradient><radialGradient cx="86.1875" cy="73.125" r="0.00125" gradientUnits="userSpaceOnUse" id="color-3"><stop offset="0" stop-color="#3800ff"/><stop offset="1" stop-color="#ca00ff"/></radialGradient><radialGradient cx="306.99408" cy="306.25" r="34.5" gradientUnits="userSpaceOnUse" id="color-4"><stop offset="0" stop-color="#3800ff"/><stop offset="1" stop-color="#ca00ff"/></radialGradient></defs><g transform="translate(-172.375,-146.25)"><g data-paper-data="{&quot;isPaintingLayer&quot;:true}" fill-rule="nonzero" stroke="none" stroke-width="0" stroke-linecap="butt" stroke-linejoin="miter" stroke-miterlimit="10" stroke-dasharray="" stroke-dashoffset="0" style="mix-blend-mode: normal"><path d="M249.49408,160.5c19.05382,0 34.5,15.44618 34.5,34.5c0,0.38578 -0.00633,0.77009 -0.0189,1.15282c-3.69972,-2.16314 -8.00518,-3.40282 -12.60018,-3.40282c-2.80637,0 -5.50474,0.46241 -8.02307,1.31519c-0.49163,-13.374 -11.48871,-24.06519 -24.98285,-24.06519c-8.09669,0 -15.29439,3.84902 -19.86316,9.81712c5.61634,-11.44131 17.3825,-19.31712 30.98816,-19.31712z" fill="url(#color-1)"/><path d="" fill="url(#color-2)"/><path d="M172.375,146.25z" fill="url(#color-3)"/><path d="M231.5,168.17143v-2.77143h41v2.77143z" fill="#ff0000"/><path d="M306.99408,271.75c19.05383,0 34.5,15.44618 34.5,34.5c0,19.05382 -15.44617,34.5 -34.5,34.5c-13.60566,0 -25.37182,-7.87581 -30.98816,-19.31713c4.56877,5.96811 11.76647,9.81713 19.86316,9.81713c13.80712,0 25,-11.19288 25,-25c0,-13.80712 -11.19288,-25 -25,-25c-8.09669,0 -15.29439,3.84902 -19.86316,9.81713c5.61634,-11.44131 17.3825,-19.31713 30.98816,-19.31713z" fill="url(#color-4)"/><path d="M231.5,190.85v-21.7h41v21.7z" fill="#ff0000"/></g></g></svg>