<svg version="1.1" xmlns="http://www.w3.org/2000/svg" xmlns:xlink="http://www.w3.org/1999/xlink" width="34.14256" height="34.14256" viewBox="0,0,34.14256,34.14256"><g transform="translate(-222.92872,-162.92872)"><g data-paper-data="{&quot;isPaintingLayer&quot;:true}" fill="#000000" fill-rule="nonzero" stroke-linecap="butt" stroke-linejoin="miter" stroke-miterlimit="10" stroke-dasharray="" stroke-dashoffset="0" style="mix-blend-mode: normal"><path d="M229.94337,180c0,-5.55412 4.5025,-10.05663 10.05663,-10.05663c5.55412,0 10.05663,4.5025 10.05663,10.05663c0,5.55412 -4.5025,10.05663 -10.05663,10.05663c-5.55412,0 -10.05663,-4.5025 -10.05663,-10.05663z" stroke="#000000" stroke-width="2.5"/><g stroke="none" stroke-width="0"><g><path d="M237.82952,190.9834l-9.90073,1.08781l1.08781,-9.90073z"/><path d="M242.17048,169.01659l9.90073,-1.08781l-1.08781,9.90073z"/></g><g><g><path d="M233.76832,170.69879l6.23168,-7.77007l6.23168,7.77007z"/><path d="M246.23168,189.30121l-6.23168,7.77007l-6.23168,-7.77007z"/></g><g><path d="M230.69879,186.23168l-7.77007,-6.23168l7.77007,-6.23168z"/><path d="M249.30121,173.76832l7.77007,6.23168l-7.77007,6.23168z"/></g><g><path d="M229.0166,177.82952l-1.08781,-9.90073l9.90073,1.08781z"/><path d="M250.9834,182.17048l1.08781,9.90073l-9.90073,-1.08781z"/></g></g></g></g></g></svg>