<svg version="1.1" xmlns="http://www.w3.org/2000/svg" xmlns:xlink="http://www.w3.org/1999/xlink" width="73.83753" height="73.83753" viewBox="0,0,73.83753,73.83753"><defs><radialGradient cx="240" cy="180" r="36.91877" gradientUnits="userSpaceOnUse" id="color-1"><stop offset="0" stop-color="#1a0034" stop-opacity="0"/><stop offset="1" stop-color="#1a0034"/></radialGradient></defs><g transform="translate(-203.08123,-143.08123)"><g data-paper-data="{&quot;isPaintingLayer&quot;:true}" fill-rule="nonzero" stroke-linejoin="miter" stroke-miterlimit="10" stroke-dasharray="" stroke-dashoffset="0" style="mix-blend-mode: normal"><path d="M203.08123,180c0,-20.38967 16.5291,-36.91877 36.91877,-36.91877c20.38967,0 36.91877,16.5291 36.91877,36.91877c0,20.38967 -16.5291,36.91877 -36.91877,36.91877c-20.38967,0 -36.91877,-16.5291 -36.91877,-36.91877z" fill="url(#color-1)" stroke="none" stroke-width="0" stroke-linecap="butt"/><path d="M208.50981,180c0,-17.39155 14.09865,-31.49019 31.4902,-31.49019c17.39155,0 31.4902,14.09865 31.4902,31.4902c0,17.39155 -14.09865,31.4902 -31.4902,31.4902c-17.39155,0 -31.49019,-14.09865 -31.49019,-31.49019z" fill="none" stroke="#7200e4" stroke-width="4.5" stroke-linecap="butt"/><path d="M209.68046,180h60.63908" fill="none" stroke="#7200e4" stroke-width="4.5" stroke-linecap="round"/></g></g></svg>