<svg version="1.1" xmlns="http://www.w3.org/2000/svg" xmlns:xlink="http://www.w3.org/1999/xlink" width="29.75" height="29.75" viewBox="0,0,29.75,29.75"><g transform="translate(-225.125,-165.125)"><g data-paper-data="{&quot;isPaintingLayer&quot;:true}" fill-rule="nonzero" stroke="#000000" stroke-linejoin="miter" stroke-miterlimit="10" stroke-dasharray="" stroke-dashoffset="0" style="mix-blend-mode: normal"><path d="M238,184.3125c-0.13807,0 -0.25,-0.11193 -0.25,-0.25c0,-0.13807 0.11193,-0.25 0.25,-0.25c0.13807,0 0.25,0.11193 0.25,0.25c0,0.13807 -0.11193,0.25 -0.25,0.25z" fill="#000000" stroke-width="1" stroke-linecap="butt"/><path d="M232.5,179.6875c-0.20711,0 -0.375,-0.16789 -0.375,-0.375c0,-0.20711 0.16789,-0.375 0.375,-0.375c0.20711,0 0.375,0.16789 0.375,0.375c0,0.20711 -0.16789,0.375 -0.375,0.375z" fill="#000000" stroke-width="1" stroke-linecap="butt"/><path d="M239.1875,178.1875c-0.24162,0 -0.4375,-0.19588 -0.4375,-0.4375c0,-0.24162 0.19588,-0.4375 0.4375,-0.4375c0.24162,0 0.4375,0.19588 0.4375,0.4375c0,0.24162 -0.19588,0.4375 -0.4375,0.4375z" fill="#000000" stroke-width="1" stroke-linecap="butt"/><path d="M231.75,188.9375c-0.20711,0 -0.375,-0.16789 -0.375,-0.375c0,-0.20711 0.16789,-0.375 0.375,-0.375c0.20711,0 0.375,0.16789 0.375,0.375c0,0.20711 -0.16789,0.375 -0.375,0.375z" fill="#000000" stroke-width="1" stroke-linecap="butt"/><path d="M242.0625,188.4375c-0.44873,0 -0.8125,-0.36377 -0.8125,-0.8125c0,-0.44873 0.36377,-0.8125 0.8125,-0.8125c0.44873,0 0.8125,0.36377 0.8125,0.8125c0,0.44873 -0.36377,0.8125 -0.8125,0.8125z" fill="#000000" stroke-width="1" stroke-linecap="butt"/><path d="M246.9375,189.1875c-0.17259,0 -0.3125,-0.13991 -0.3125,-0.3125c0,-0.17259 0.13991,-0.3125 0.3125,-0.3125c0.17259,0 0.3125,0.13991 0.3125,0.3125c0,0.17259 -0.13991,0.3125 -0.3125,0.3125z" fill="#000000" stroke-width="1" stroke-linecap="butt"/><path d="M230.5,175.3125c-0.48325,0 -0.875,-0.39175 -0.875,-0.875c0,-0.48325 0.39175,-0.875 0.875,-0.875c0.48325,0 0.875,0.39175 0.875,0.875c0,0.48325 -0.39175,0.875 -0.875,0.875z" fill="#000000" stroke-width="1" stroke-linecap="butt"/><path d="M238.25,172.5625c-0.13807,0 -0.25,-0.11193 -0.25,-0.25c0,-0.13807 0.11193,-0.25 0.25,-0.25c0.13807,0 0.25,0.11193 0.25,0.25c0,0.13807 -0.11193,0.25 -0.25,0.25z" fill="#000000" stroke-width="1" stroke-linecap="butt"/><path d="M245.375,174.8125c-0.20711,0 -0.375,-0.16789 -0.375,-0.375c0,-0.20711 0.16789,-0.375 0.375,-0.375c0.20711,0 0.375,0.16789 0.375,0.375c0,0.20711 -0.16789,0.375 -0.375,0.375z" fill="#000000" stroke-width="1" stroke-linecap="butt"/><path d="M241.6875,169.9375c-0.17259,0 -0.3125,-0.13991 -0.3125,-0.3125c0,-0.17259 0.13991,-0.3125 0.3125,-0.3125c0.17259,0 0.3125,0.13991 0.3125,0.3125c0,0.17259 -0.13991,0.3125 -0.3125,0.3125z" fill="#000000" stroke-width="1" stroke-linecap="butt"/><path d="M240.875,182.0625l0.75,-0.625" fill="none" stroke-width="1" stroke-linecap="round"/><path d="M234.625,181.0625h0.875" fill="none" stroke-width="2" stroke-linecap="round"/><path d="M242.5,177.9375l0.625,-0.5" fill="none" stroke-width="2" stroke-linecap="round"/><path d="M248.25,177.4375l-1.5,-0.5" fill="none" stroke-width="2" stroke-linecap="round"/><path d="M239.3125,174.75l-2.875,0.875" fill="none" stroke-width="1.5" stroke-linecap="round"/><path d="M236.6875,169.125l-2,-0.125" fill="none" stroke-width="1.5" stroke-linecap="round"/><path d="M228.3125,178.875l1.875,0.625" fill="none" stroke-width="1.5" stroke-linecap="round"/><path d="M232.4375,184.875l1.75,-0.375" fill="none" stroke-width="1.5" stroke-linecap="round"/><path d="M239.4375,190.125l-2.25,-0.125" fill="none" stroke-width="1.5" stroke-linecap="round"/><g fill="none" stroke-linecap="butt"><path d="M240,194.375c-7.93909,0 -14.375,-6.43591 -14.375,-14.375c0,-7.93909 6.43591,-14.375 14.375,-14.375c7.93909,0 14.375,6.43591 14.375,14.375c0,7.93909 -6.43591,14.375 -14.375,14.375z" stroke-width="1"/><path d="M240,190.5c-5.79899,0 -10.5,-4.70101 -10.5,-10.5c0,-5.79899 4.70101,-10.5 10.5,-10.5c5.79899,0 10.5,4.70101 10.5,10.5c0,5.79899 -4.70101,10.5 -10.5,10.5z" stroke-width="0.5"/><path d="M240,189.25c-5.10863,0 -9.25,-4.14137 -9.25,-9.25c0,-5.10863 4.14137,-9.25 9.25,-9.25c5.10863,0 9.25,4.14137 9.25,9.25c0,5.10863 -4.14137,9.25 -9.25,9.25z" stroke-width="0.5"/><path d="M240,186.25c-3.45178,0 -6.25,-2.79822 -6.25,-6.25c0,-3.45178 2.79822,-6.25 6.25,-6.25c3.45178,0 6.25,2.79822 6.25,6.25c0,3.45178 -2.79822,6.25 -6.25,6.25z" stroke-width="0.5"/></g><path d="M242.09375,175.25c0.13807,0 0.25,0.11193 0.25,0.25c0,0.13807 -0.11193,0.25 -0.25,0.25c-0.13807,0 -0.25,-0.11193 -0.25,-0.25c0,-0.13807 0.11193,-0.25 0.25,-0.25z" fill="#000000" stroke-width="1" stroke-linecap="butt"/><path d="M247.59375,179.875c0.20711,0 0.375,0.16789 0.375,0.375c0,0.20711 -0.16789,0.375 -0.375,0.375c-0.20711,0 -0.375,-0.16789 -0.375,-0.375c0,-0.20711 0.16789,-0.375 0.375,-0.375z" fill="#000000" stroke-width="1" stroke-linecap="butt"/><path d="M240.90625,181.375c0.24162,0 0.4375,0.19588 0.4375,0.4375c0,0.24162 -0.19588,0.4375 -0.4375,0.4375c-0.24162,0 -0.4375,-0.19588 -0.4375,-0.4375c0,-0.24162 0.19588,-0.4375 0.4375,-0.4375z" fill="#000000" stroke-width="1" stroke-linecap="butt"/><path d="M248.34375,170.625c0.20711,0 0.375,0.16789 0.375,0.375c0,0.20711 -0.16789,0.375 -0.375,0.375c-0.20711,0 -0.375,-0.16789 -0.375,-0.375c0,-0.20711 0.16789,-0.375 0.375,-0.375z" fill="#000000" stroke-width="1" stroke-linecap="butt"/><path d="M238.03125,171.125c0.44873,0 0.8125,0.36377 0.8125,0.8125c0,0.44873 -0.36377,0.8125 -0.8125,0.8125c-0.44873,0 -0.8125,-0.36377 -0.8125,-0.8125c0,-0.44873 0.36377,-0.8125 0.8125,-0.8125z" fill="#000000" stroke-width="1" stroke-linecap="butt"/><path d="M232.53125,176.25c0.72487,0 1.3125,0.58763 1.3125,1.3125c0,0.72487 -0.58763,1.3125 -1.3125,1.3125c-0.72487,0 -1.3125,-0.58763 -1.3125,-1.3125c0,-0.72487 0.58763,-1.3125 1.3125,-1.3125z" fill="#000000" stroke-width="1" stroke-linecap="butt"/><path d="M233.15625,170.375c0.17259,0 0.3125,0.13991 0.3125,0.3125c0,0.17259 -0.13991,0.3125 -0.3125,0.3125c-0.17259,0 -0.3125,-0.13991 -0.3125,-0.3125c0,-0.17259 0.13991,-0.3125 0.3125,-0.3125z" fill="#000000" stroke-width="1" stroke-linecap="butt"/><path d="M249.59375,184.25c0.48325,0 0.875,0.39175 0.875,0.875c0,0.48325 -0.39175,0.875 -0.875,0.875c-0.48325,0 -0.875,-0.39175 -0.875,-0.875c0,-0.48325 0.39175,-0.875 0.875,-0.875z" fill="#000000" stroke-width="1" stroke-linecap="butt"/><path d="M241.84375,187c0.13807,0 0.25,0.11193 0.25,0.25c0,0.13807 -0.11193,0.25 -0.25,0.25c-0.13807,0 -0.25,-0.11193 -0.25,-0.25c0,-0.13807 0.11193,-0.25 0.25,-0.25z" fill="#000000" stroke-width="1" stroke-linecap="butt"/><path d="M234.71875,184.75c0.20711,0 0.375,0.16789 0.375,0.375c0,0.20711 -0.16789,0.375 -0.375,0.375c-0.20711,0 -0.375,-0.16789 -0.375,-0.375c0,-0.20711 0.16789,-0.375 0.375,-0.375z" fill="#000000" stroke-width="1" stroke-linecap="butt"/><path d="M238.40625,189.625c0.17259,0 0.3125,0.13991 0.3125,0.3125c0,0.17259 -0.13991,0.3125 -0.3125,0.3125c-0.17259,0 -0.3125,-0.13991 -0.3125,-0.3125c0,-0.17259 0.13991,-0.3125 0.3125,-0.3125z" fill="#000000" stroke-width="1" stroke-linecap="butt"/><path d="M239.21875,177.5l-0.75,0.625" fill="none" stroke-width="1" stroke-linecap="round"/><path d="M245.46875,178.5h-0.875" fill="none" stroke-width="2" stroke-linecap="round"/><path d="M237.59375,181.625l-0.625,0.5" fill="none" stroke-width="2" stroke-linecap="round"/><path d="M231.84375,182.125l1.5,0.5" fill="none" stroke-width="2" stroke-linecap="round"/><path d="M240.78125,184.8125l2.875,-0.875" fill="none" stroke-width="1.5" stroke-linecap="round"/><path d="M243.40625,190.4375l2,0.125" fill="none" stroke-width="1.5" stroke-linecap="round"/><path d="M251.78125,180.6875l-1.875,-0.625" fill="none" stroke-width="1.5" stroke-linecap="round"/><path d="M247.65625,174.6875l-1.75,0.375" fill="none" stroke-width="1.5" stroke-linecap="round"/><path d="M240.65625,169.4375l2.25,0.125" fill="none" stroke-width="1.5" stroke-linecap="round"/></g></g></svg>