<svg version="1.1" xmlns="http://www.w3.org/2000/svg" xmlns:xlink="http://www.w3.org/1999/xlink" width="15.62222" height="15.62223" viewBox="0,0,15.62222,15.62223"><defs><radialGradient cx="240" cy="180" r="6.75666" gradientUnits="userSpaceOnUse" id="color-1"><stop offset="0" stop-color="#a64cff"/><stop offset="1" stop-color="#a64cff" stop-opacity="0"/></radialGradient><radialGradient cx="240" cy="180" r="7.81111" gradientUnits="userSpaceOnUse" id="color-2"><stop offset="0" stop-color="#c58cff"/><stop offset="1" stop-color="#a64cff"/></radialGradient></defs><g transform="translate(-232.18889,-172.18889)"><g data-paper-data="{&quot;isPaintingLayer&quot;:true}" fill-rule="nonzero" stroke="none" stroke-width="0" stroke-linecap="butt" stroke-linejoin="miter" stroke-miterlimit="10" stroke-dasharray="" stroke-dashoffset="0" style="mix-blend-mode: normal"><path d="M233.24334,180c0,-3.7316 3.02506,-6.75666 6.75666,-6.75666c3.7316,0 6.75666,3.02506 6.75666,6.75666c0,3.7316 -3.02506,6.75666 -6.75666,6.75666c-3.7316,0 -6.75666,-3.02506 -6.75666,-6.75666z" fill="url(#color-1)"/><path d="M240,187.81111c0,0 -0.32052,-4.91996 -1.62566,-6.2251c-1.29853,-1.29853 -6.18545,-1.58601 -6.18545,-1.58601c0,0 4.90054,-0.2218 6.18545,-1.50671c1.31795,-1.31795 1.62566,-6.3044 1.62566,-6.3044c0,0 0.07734,4.99398 1.34811,6.26475c1.33021,1.33021 6.463,1.54637 6.463,1.54637c0,0 -5.19751,0.12227 -6.50265,1.42741c-1.29853,1.29853 -1.30846,6.3837 -1.30846,6.3837z" fill="url(#color-2)"/></g></g></svg>