<svg version="1.1" xmlns="http://www.w3.org/2000/svg" xmlns:xlink="http://www.w3.org/1999/xlink" width="35.02273" height="35.02273" viewBox="0,0,35.02273,35.02273"><g transform="translate(-222.48864,-162.48864)"><g data-paper-data="{&quot;isPaintingLayer&quot;:true}" fill="none" fill-rule="nonzero" stroke="#ff0000" stroke-linecap="butt" stroke-linejoin="miter" stroke-miterlimit="10" stroke-dasharray="" stroke-dashoffset="0" style="mix-blend-mode: normal"><g><path d="M240,197.01136c-9.39511,0 -17.01136,-7.61625 -17.01136,-17.01136c0,-9.39511 7.61625,-17.01136 17.01136,-17.01136c9.39511,0 17.01136,7.61625 17.01136,17.01136c0,9.39511 -7.61625,17.01136 -17.01136,17.01136z" stroke-width="1"/><path d="M240,192.42569c-6.86252,0 -12.42569,-5.56317 -12.42569,-12.42569c0,-6.86252 5.56317,-12.42569 12.42569,-12.42569c6.86252,0 12.42569,5.56317 12.42569,12.42569c0,6.86252 -5.56317,12.42569 -12.42569,12.42569z" stroke-width="0.5"/><path d="M240,190.94644c-6.04555,0 -10.94644,-4.90089 -10.94644,-10.94644c0,-6.04555 4.90089,-10.94644 10.94644,-10.94644c6.04555,0 10.94644,4.90089 10.94644,10.94644c0,6.04555 -4.90089,10.94644 -10.94644,10.94644z" stroke-width="0.5"/><path d="M240,187.39625c-4.08483,0 -7.39625,-3.31141 -7.39625,-7.39625c0,-4.08483 3.31141,-7.39625 7.39625,-7.39625c4.08483,0 7.39625,3.31141 7.39625,7.39625c0,4.08483 -3.31141,7.39625 -7.39625,7.39625z" stroke-width="0.5"/><path d="M240,183.41572c-1.88645,0 -3.41572,-1.52927 -3.41572,-3.41572c0,-1.88645 1.52927,-3.41572 3.41572,-3.41572c1.88645,0 3.41572,1.52927 3.41572,3.41572c0,1.88645 -1.52927,3.41572 -3.41572,3.41572z" stroke-width="0.5"/></g></g></g></svg>