<svg version="1.1" xmlns="http://www.w3.org/2000/svg" xmlns:xlink="http://www.w3.org/1999/xlink" width="13.77382" height="6.56228" viewBox="0,0,13.77382,6.56228"><defs><radialGradient cx="240" cy="180" r="1.68758" gradientUnits="userSpaceOnUse" id="color-1"><stop offset="0" stop-color="#e4ccff"/><stop offset="1" stop-color="#e4ccff" stop-opacity="0"/></radialGradient><radialGradient cx="240" cy="180" r="3.13691" gradientUnits="userSpaceOnUse" id="color-2"><stop offset="0" stop-color="#7700ff"/><stop offset="1" stop-color="#7700ff" stop-opacity="0"/></radialGradient><radialGradient cx="240" cy="180" r="1.5486" gradientUnits="userSpaceOnUse" id="color-3"><stop offset="0" stop-color="#ba7eff"/><stop offset="1" stop-color="#ba7eff" stop-opacity="0"/></radialGradient><radialGradient cx="240" cy="180" r="1.98538" gradientUnits="userSpaceOnUse" id="color-4"><stop offset="0" stop-color="#cb9dff"/><stop offset="1" stop-color="#cb9dff" stop-opacity="0"/></radialGradient><radialGradient cx="232.5" cy="180.21154" r="1.68758" gradientUnits="userSpaceOnUse" id="color-5"><stop offset="0" stop-color="#e4ccff"/><stop offset="1" stop-color="#e4ccff" stop-opacity="0"/></radialGradient><radialGradient cx="232.50001" cy="180.21154" r="3.13691" gradientUnits="userSpaceOnUse" id="color-6"><stop offset="0" stop-color="#7700ff"/><stop offset="1" stop-color="#7700ff" stop-opacity="0"/></radialGradient><radialGradient cx="232.5" cy="180.21154" r="1.5486" gradientUnits="userSpaceOnUse" id="color-7"><stop offset="0" stop-color="#ba7eff"/><stop offset="1" stop-color="#ba7eff" stop-opacity="0"/></radialGradient><radialGradient cx="232.5" cy="180.21154" r="1.98538" gradientUnits="userSpaceOnUse" id="color-8"><stop offset="0" stop-color="#cb9dff"/><stop offset="1" stop-color="#cb9dff" stop-opacity="0"/></radialGradient><radialGradient cx="232.50001" cy="180.28847" r="1.68758" gradientUnits="userSpaceOnUse" id="color-9"><stop offset="0" stop-color="#e4ccff"/><stop offset="1" stop-color="#e4ccff" stop-opacity="0"/></radialGradient><radialGradient cx="232.50001" cy="180.28847" r="3.13691" gradientUnits="userSpaceOnUse" id="color-10"><stop offset="0" stop-color="#7700ff"/><stop offset="1" stop-color="#7700ff" stop-opacity="0"/></radialGradient><radialGradient cx="232.50001" cy="180.28847" r="1.5486" gradientUnits="userSpaceOnUse" id="color-11"><stop offset="0" stop-color="#ba7eff"/><stop offset="1" stop-color="#ba7eff" stop-opacity="0"/></radialGradient><radialGradient cx="232.50001" cy="180.28847" r="1.98538" gradientUnits="userSpaceOnUse" id="color-12"><stop offset="0" stop-color="#cb9dff"/><stop offset="1" stop-color="#cb9dff" stop-opacity="0"/></radialGradient></defs><g transform="translate(-229.36309,-176.86309)"><g data-paper-data="{&quot;isPaintingLayer&quot;:true}" fill-rule="nonzero" stroke="none" stroke-width="0" stroke-linecap="butt" stroke-linejoin="miter" stroke-miterlimit="10" stroke-dasharray="" stroke-dashoffset="0" style="mix-blend-mode: normal"><path d="M238.31242,180c0,-0.93202 0.75555,-1.68758 1.68758,-1.68758c0.93202,0 1.68758,0.75555 1.68758,1.68758c0,0.93202 -0.75555,1.68758 -1.68758,1.68758c-0.93202,0 -1.68758,-0.75555 -1.68758,-1.68758z" fill="url(#color-1)"/><path d="M236.86309,180c0,-1.73246 1.40444,-3.13691 3.13691,-3.13691c1.73246,0 3.13691,1.40444 3.13691,3.13691c0,1.73246 -1.40444,3.13691 -3.13691,3.13691c-1.73246,0 -3.13691,-1.40444 -3.13691,-3.13691z" fill="url(#color-2)"/><path d="M238.4514,180c0,-0.85527 0.69333,-1.5486 1.5486,-1.5486c0.85527,0 1.5486,0.69333 1.5486,1.5486c0,0.85527 -0.69333,1.5486 -1.5486,1.5486c-0.85527,0 -1.5486,-0.69333 -1.5486,-1.5486z" fill="url(#color-3)"/><path d="M238.01462,180c0,-1.0965 0.88889,-1.98538 1.98538,-1.98538c1.0965,0 1.98538,0.88889 1.98538,1.98538c0,1.0965 -0.88889,1.98538 -1.98538,1.98538c-1.0965,0 -1.98538,-0.88889 -1.98538,-1.98538z" fill="url(#color-4)"/><path d="M230.81242,180.21154c0,-0.4235 0.75555,-0.76681 1.68758,-0.76681c0.93202,0 1.68758,0.34331 1.68758,0.76681c0,0.4235 -0.75555,0.76681 -1.68758,0.76681c-0.93202,0 -1.68758,-0.34331 -1.68758,-0.76681z" fill="url(#color-5)"/><path d="M229.3631,180.21154c0,0 1.40444,-1.42537 3.13691,-1.42537c1.73246,0 3.13691,1.42537 3.13691,1.42537c0,0 -1.40444,1.42537 -3.13691,1.42537c-1.73246,0 -3.13691,-1.42537 -3.13691,-1.42537z" fill="url(#color-6)"/><path d="M230.9514,180.21154c0,-0.38862 0.69333,-0.70366 1.5486,-0.70366c0.85527,0 1.5486,0.31504 1.5486,0.70366c0,0.38862 -0.69333,0.70366 -1.5486,0.70366c-0.85527,0 -1.5486,-0.31504 -1.5486,-0.70366z" fill="url(#color-7)"/><path d="M230.51462,180.21154c0,-0.49824 0.88889,-0.90213 1.98538,-0.90213c1.0965,0 1.98538,0.4039 1.98538,0.90213c0,0.49824 -0.88889,0.90213 -1.98538,0.90213c-1.0965,0 -1.98538,-0.4039 -1.98538,-0.90213z" fill="url(#color-8)"/><path d="M232.50001,181.97605c-0.4235,0 -0.76681,-0.75555 -0.76682,-1.68758c0,-0.93202 0.34332,-1.68758 0.76681,-1.68758c0.4235,0 0.76682,0.75555 0.76682,1.68758c0,0.93202 -0.34331,1.68758 -0.76681,1.68758z" fill="url(#color-9)"/><path d="M232.50001,183.42538c0,0 -1.42538,-1.40444 -1.42538,-3.13691c0,-1.73246 1.42538,-3.13691 1.42538,-3.13691c0,0 1.42537,1.40444 1.42537,3.13691c0,1.73246 -1.42537,3.13691 -1.42537,3.13691z" fill="url(#color-10)"/><path d="M232.50001,181.83707c-0.38863,0 -0.70367,-0.69333 -0.70367,-1.5486c0,-0.85527 0.31504,-1.5486 0.70367,-1.5486c0.38862,0 0.70366,0.69333 0.70366,1.5486c0,0.85527 -0.31504,1.5486 -0.70366,1.5486z" fill="url(#color-11)"/><path d="M232.50001,182.27385c-0.49824,0 -0.90213,-0.88889 -0.90214,-1.98538c0,-1.0965 0.40391,-1.98538 0.90214,-1.98538c0.49824,0 0.90213,0.88889 0.90213,1.98538c0,1.0965 -0.4039,1.98538 -0.90213,1.98538z" fill="url(#color-12)"/></g></g></svg>