<svg version="1.1" xmlns="http://www.w3.org/2000/svg" xmlns:xlink="http://www.w3.org/1999/xlink" width="7.06792" height="24.09546" viewBox="0,0,7.06792,24.09546"><g transform="translate(-236.46605,-167.95227)"><g data-paper-data="{&quot;isPaintingLayer&quot;:true}" fill="#8400ff" fill-rule="nonzero" stroke="none" stroke-width="0" stroke-linecap="butt" stroke-linejoin="miter" stroke-miterlimit="10" stroke-dasharray="" stroke-dashoffset="0" style="mix-blend-mode: normal"><path d="M239.00435,185.75681c0,0 0.39202,-17.80454 1.01517,-17.80454c0.50602,0 0.97613,17.80454 0.97613,17.80454z"/><path d="M236.46605,184.80948l2.22654,-0.06643l1.30742,0.92231l1.42499,-0.92404l2.10897,0.06816l-3.53395,3.53395z"/><path d="M239.02387,192.04773v-6.40339h1.95225v6.40339z"/><path d="M239.28214,191.61689v-3.90078h1.43572v3.90078z"/><path d="M239.29302,184.73431l0.70698,-3.65516l0.70698,3.65516l-0.70698,0.939z"/><path d="M239.29302,179.03328l0.70698,-1.57262l0.70698,1.57262l-0.70698,1.38061z"/><path d="M239.57162,175.94659l0.42838,-1.67152l0.42838,1.67152l-0.42838,1.46744z"/></g></g></svg>