<svg version="1.1" xmlns="http://www.w3.org/2000/svg" xmlns:xlink="http://www.w3.org/1999/xlink" width="273.47676" height="360.83757" viewBox="0,0,273.47676,360.83757"><g transform="translate(-163.48864,16.53894)"><g data-paper-data="{&quot;isPaintingLayer&quot;:true}" fill-rule="nonzero" stroke="#ff0000" stroke-linecap="butt" stroke-linejoin="miter" stroke-miterlimit="10" stroke-dasharray="" stroke-dashoffset="0" style="mix-blend-mode: normal"><path d="M240,255.01136c-41.42761,0 -75.01136,-33.58375 -75.01136,-75.01136c0,-41.42761 33.58375,-75.01136 75.01136,-75.01136c41.42761,0 75.01136,33.58375 75.01136,75.01136c0,41.42761 -33.58375,75.01136 -75.01136,75.01136z" fill="none" stroke-width="3"></path><path d="M240,234.7909c-30.26018,0 -54.79091,-24.53072 -54.79091,-54.79091c0,-30.26018 24.53072,-54.79091 54.79091,-54.79091c30.26018,0 54.79091,24.53072 54.79091,54.79091c0,30.26018 -24.53072,54.79091 -54.79091,54.79091z" fill="none" stroke-width="2.5"></path><path d="M240,228.26817c-26.65777,0 -48.26818,-21.61041 -48.26818,-48.26818c0,-26.65777 21.61041,-48.26818 48.26818,-48.26818c26.65777,0 48.26818,21.61041 48.26818,48.26818c0,26.65777 -21.61041,48.26818 -48.26818,48.26818z" fill="none" stroke-width="2.5"></path><path d="M240,212.61365c-18.012,0 -32.61366,-14.60161 -32.61366,-32.61366c0,-18.012 14.60161,-32.61366 32.61366,-32.61366c18.012,0 32.61366,14.60161 32.61366,32.61366c0,18.012 -14.60161,32.61366 -32.61366,32.61366z" fill="none" stroke-width="2"></path><path d="M240,195.06156c-8.31828,0 -15.06157,-6.74329 -15.06157,-15.06157c0,-8.31828 6.74329,-15.06157 15.06157,-15.06157c8.31828,0 15.06157,6.74329 15.06157,15.06157c0,8.31828 -6.74329,15.06157 -15.06157,15.06157z" fill="none" stroke-width="1.5"></path><path d="M374.48999,205.06055c0.78919,0.78919 0,1.57847 0,1.57847l-1.13266,0.67037c-0.44731,-0.00013 -0.89458,-0.00031 -1.34184,-0.00044c-1.28935,0.06641 -2.7139,0.80399 -4.12335,1.64779c0.08072,0.29361 0.09693,0.59097 0.03453,0.88969c-0.49355,2.36189 -9.02096,3.98268 -9.4226,0.81139c-0.16841,-1.32973 1.52686,-2.44922 3.7775,-3.32856c-0.7991,-0.59388 -1.60291,-1.1608 -2.38902,-1.47339c0,0 -1.0363,-0.41455 -0.6218,-1.45084c0.41455,-1.0363 1.4508,-0.6218 1.4508,-0.6218c0.91224,0.36685 3.09145,1.29714 4.82278,2.5059c2.80828,-0.74198 5.57291,-1.16023 6.40742,-1.21158c0.46849,-0.00013 0.93703,-0.00031 1.40553,-0.00044l-0.44577,-0.01651c0,0 0.78924,-0.78919 1.57847,0z" fill="#ff0000" stroke-width="0"></path><path d="M358.8433,342.93944c-0.78919,-0.78919 0,-1.57847 0,-1.57847l1.13266,-0.67037c0.44731,0.00013 0.89458,0.00031 1.34184,0.00044c1.28935,-0.06641 2.7139,-0.80399 4.12335,-1.64779c-0.08072,-0.29361 -0.09693,-0.59097 -0.03453,-0.88969c0.49355,-2.36189 9.02096,-3.98268 9.4226,-0.81139c0.16841,1.32973 -1.52686,2.44922 -3.7775,3.32856c0.7991,0.59388 1.60291,1.1608 2.38902,1.47339c0,0 1.0363,0.41455 0.6218,1.45084c-0.41455,1.0363 -1.4508,0.6218 -1.4508,0.6218c-0.91224,-0.36685 -3.09145,-1.29714 -4.82278,-2.5059c-2.80828,0.74198 -5.57291,1.16023 -6.40742,1.21158c-0.46849,0.00013 -0.93703,0.00031 -1.40553,0.00044l0.44577,0.01651c0,0 -0.78924,0.78919 -1.57847,0z" fill="#ff0000" stroke-width="0"></path><path d="M297.7272,280.24487l0.01651,0.44577c0.00013,-0.46849 0.00031,-0.93703 0.00044,-1.40553c0.05139,-0.83446 0.46964,-3.5991 1.21158,-6.40742c-1.20885,-1.73138 -2.1391,-3.91055 -2.5059,-4.82278c0,0 -0.41455,-1.03625 0.6218,-1.4508c1.0363,-0.41455 1.45084,0.6218 1.45084,0.6218c0.31259,0.78611 0.87952,1.58992 1.47339,2.38902c0.87934,-2.25069 1.99883,-3.94591 3.32856,-3.7775c3.1713,0.40164 1.5505,8.92904 -0.81139,9.4226c-0.29872,0.0624 -0.59608,0.0462 -0.88969,-0.03453c-0.8438,1.4094 -1.58133,2.83395 -1.64779,4.12335c0.00013,0.44731 0.00031,0.89458 0.00044,1.34184l-0.67037,1.13266c0,0 -0.78924,0.78919 -1.57847,0c-0.78919,-0.78919 0,-1.57847 0,-1.57847z" fill="#ff0000" stroke-width="0"></path><path d="M435.60614,267.75513l-0.01651,-0.44577c-0.00013,0.46849 -0.00031,0.93703 -0.00044,1.40553c-0.05139,0.83446 -0.46964,3.5991 -1.21158,6.40742c1.20885,1.73138 2.1391,3.91055 2.5059,4.82278c0,0 0.41455,1.03625 -0.6218,1.4508c-1.0363,0.41455 -1.45084,-0.6218 -1.45084,-0.6218c-0.31259,-0.78611 -0.87952,-1.58992 -1.47339,-2.38902c-0.87934,2.25069 -1.99883,3.94591 -3.32856,3.7775c-3.1713,-0.40164 -1.5505,-8.92904 0.81139,-9.4226c0.29872,-0.0624 0.59608,-0.0462 0.88969,0.03453c0.8438,-1.4094 1.58133,-2.83395 1.64779,-4.12335c-0.00013,-0.44731 -0.00031,-0.89458 -0.00044,-1.34184l0.67037,-1.13266c0,0 0.78924,-0.78919 1.57847,0c0.78919,0.78919 0,1.57847 0,1.57847z" fill="#ff0000" stroke-width="0"></path><path d="M323.78437,219.72053c1.11614,0 1.11614,1.11614 1.11614,1.11614l-0.32695,1.2749c-0.31634,0.31616 -0.63276,0.63237 -0.9491,0.94853c-0.86472,0.95866 -1.35048,2.48758 -1.75045,4.0808c0.26468,0.15057 0.48642,0.34937 0.65346,0.60471c1.3211,2.01909 -3.56259,9.19496 -6.08906,7.23651c-1.05933,-0.82116 -0.65227,-2.81145 0.31744,-5.02475c-0.98504,0.14511 -1.95422,0.31264 -2.73116,0.64747c0,0 -1.02586,0.43965 -1.46555,-0.58626c-0.43965,-1.0259 0.58621,-1.46555 0.58621,-1.46555c0.90444,-0.38566 3.10312,-1.26878 5.18215,-1.63828c1.4611,-2.51044 3.1203,-4.76104 3.67397,-5.38742c0.33118,-0.3314 0.66236,-0.66275 0.99354,-0.99415l-0.32695,0.30357c0,0 0.00004,-1.11614 1.11619,-1.11614z" fill="#ff0000" stroke-width="0"></path><path d="M409.88226,328.27948c-1.11614,0 -1.11614,-1.11614 -1.11614,-1.11614l0.32695,-1.2749c0.31634,-0.31616 0.63276,-0.63237 0.9491,-0.94853c0.86472,-0.95866 1.35048,-2.48758 1.75045,-4.0808c-0.26468,-0.15057 -0.48642,-0.34937 -0.65346,-0.60471c-1.3211,-2.01909 3.56259,-9.19496 6.08906,-7.23651c1.05933,0.82116 0.65227,2.81145 -0.31744,5.02475c0.98504,-0.14511 1.95422,-0.31264 2.73116,-0.64747c0,0 1.02586,-0.43965 1.46555,0.58626c0.43965,1.0259 -0.58621,1.46555 -0.58621,1.46555c-0.90444,0.38566 -3.10312,1.26878 -5.18215,1.63828c-1.4611,2.51044 -3.1203,4.76104 -3.67397,5.38742c-0.33118,0.3314 -0.66236,0.66275 -0.99354,0.99415l0.32695,-0.30357c0,0 -0.00004,1.11614 -1.11619,1.11614z" fill="#ff0000" stroke-width="0"></path><path d="M322.33489,327.16334l0.32695,0.30357c-0.33118,-0.3314 -0.66236,-0.66275 -0.99354,-0.99415c-0.55371,-0.62642 -2.21286,-2.87702 -3.67397,-5.38742c-2.07903,-0.36949 -4.27771,-1.25262 -5.18215,-1.63828c0,0 -1.02586,-0.4396 -0.58621,-1.46555c0.43965,-1.0259 1.46555,-0.58626 1.46555,-0.58626c0.7769,0.33483 1.74613,0.50236 2.73116,0.64747c-0.96971,-2.21326 -1.37677,-4.20354 -0.31744,-5.02475c2.52647,-1.95844 7.41016,5.21742 6.08906,7.23651c-0.16709,0.25539 -0.38883,0.45414 -0.65346,0.60471c0.39992,1.59322 0.88573,3.1221 1.75045,4.0808c0.31634,0.31616 0.63276,0.63237 0.9491,0.94853l0.32695,1.2749c0,0 0,1.11614 -1.11614,1.11614c-1.11614,0 -1.11619,-1.11614 -1.11619,-1.11614z" fill="#ff0000" stroke-width="0"></path><path d="M410.99844,221.17l-0.32695,-0.30357c0.33118,0.3314 0.66236,0.66275 0.99354,0.99415c0.55371,0.62642 2.21286,2.87702 3.67397,5.38742c2.07903,0.36949 4.27771,1.25262 5.18215,1.63828c0,0 1.02586,0.4396 0.58621,1.46555c-0.43965,1.0259 -1.46555,0.58626 -1.46555,0.58626c-0.7769,-0.33483 -1.74613,-0.50236 -2.73116,-0.64747c0.96971,2.21326 1.37677,4.20354 0.31744,5.02475c-2.52647,1.95844 -7.41016,-5.21742 -6.08906,-7.23651c0.16709,-0.25539 0.38883,-0.45414 0.65346,-0.60471c-0.39992,-1.59322 -0.88573,-3.1221 -1.75045,-4.0808c-0.31634,-0.31616 -0.63276,-0.63237 -0.9491,-0.94853l-0.32695,-1.2749c0,0 0,-1.11614 1.11614,-1.11614c1.11614,0 1.11619,1.11614 1.11619,1.11614z" fill="#ff0000" stroke-width="0"></path><path d="M386.52022,340.48071c-1.03559,-0.41626 -0.61933,-1.4519 -0.61933,-1.4519l0.7788,-1.06096c0.41146,-0.17537 0.82297,-0.35073 1.23443,-0.5261c1.15987,-0.56701 2.1808,-1.80435 3.14615,-3.13351c-0.18941,-0.23839 -0.32101,-0.50558 -0.38081,-0.80483c-0.47277,-2.36616 6.7349,-7.20282 8.34865,-4.44338c0.67667,1.15705 -0.44344,2.85188 -2.1686,4.54379c0.96804,0.23271 1.92982,0.43877 2.77556,0.41789c0,0 1.11588,-0.02532 1.1412,1.09051c0.02532,1.11583 -1.09051,1.1412 -1.09051,1.1412c-0.98301,0.02048 -3.35248,0.01986 -5.4193,-0.41265c-2.29196,1.78436 -4.67076,3.25378 -5.4182,3.62847c-0.43088,0.18395 -0.86181,0.36795 -1.29265,0.55195l0.41653,-0.15973c0,0 -0.41631,1.03564 -1.4519,0.61933z" fill="#ff0000" stroke-width="0"></path><path d="M346.81317,207.5192c1.03559,0.41626 0.61933,1.4519 0.61933,1.4519l-0.7788,1.06096c-0.41146,0.17537 -0.82297,0.35073 -1.23443,0.5261c-1.15987,0.56701 -2.1808,1.80435 -3.14615,3.13351c0.18941,0.23839 0.32101,0.50558 0.38081,0.80483c0.47277,2.36616 -6.7349,7.20282 -8.34865,4.44338c-0.67667,-1.15705 0.44344,-2.85188 2.1686,-4.54379c-0.96804,-0.23271 -1.92982,-0.43877 -2.77556,-0.41789c0,0 -1.11588,0.02532 -1.1412,-1.09051c-0.02532,-1.11583 1.09051,-1.1412 1.09051,-1.1412c0.98301,-0.02048 3.35248,-0.01986 5.4193,0.41265c2.29196,-1.78436 4.67076,-3.25378 5.4182,-3.62847c0.43088,-0.18395 0.86181,-0.36795 1.29265,-0.55195l-0.41653,0.15973c0,0 0.41631,-1.03564 1.4519,-0.61933z" fill="#ff0000" stroke-width="0"></path><path d="M427.62751,241.53972l-0.19012,-0.40358c0.18373,0.43102 0.36738,0.86203 0.55107,1.293c0.28014,0.78774 0.98019,3.49472 1.39958,6.36897c1.79123,1.11826 3.50195,2.75768 4.19729,3.4528c0,0 0.78791,0.79056 -0.00269,1.57843c-0.7906,0.78791 -1.57847,-0.00269 -1.57847,-0.00269c-0.59603,-0.60044 -1.43283,-1.11729 -2.29262,-1.61934c0.07429,2.41522 -0.29027,4.41374 -1.57948,4.78059c-3.07459,0.87489 -4.92958,-7.60464 -2.95075,-8.98533c0.25028,-0.17462 0.53011,-0.27639 0.83187,-0.31739c0.2231,-1.62744 0.34263,-3.22718 -0.10217,-4.4392c-0.17563,-0.41137 -0.35126,-0.82275 -0.52689,-1.23404l0.17215,-1.30485c0,0 0.41631,-1.03559 1.4519,-0.61933c1.03559,0.41626 0.61933,1.45186 0.61933,1.45186z" fill="#ff0000" stroke-width="0"></path><path d="M305.70579,306.79362l0.19012,0.40358c-0.18373,-0.43102 -0.36738,-0.86203 -0.55107,-1.293c-0.28014,-0.78774 -0.98019,-3.49472 -1.39958,-6.36897c-1.79123,-1.11826 -3.50195,-2.75768 -4.19729,-3.4528c0,0 -0.78791,-0.79056 0.00269,-1.57843c0.7906,-0.78791 1.57847,0.00269 1.57847,0.00269c0.59603,0.60044 1.43283,1.11729 2.29262,1.61934c-0.07429,-2.41522 0.29027,-4.41374 1.57948,-4.78059c3.07459,-0.87489 4.92958,7.60464 2.95075,8.98533c-0.25028,0.17462 -0.53011,0.27639 -0.83187,0.31739c-0.2231,1.62744 -0.34263,3.22718 0.10217,4.4392c0.17563,0.41137 0.35126,0.82275 0.52689,1.23404l-0.17215,1.30485c0,0 -0.41631,1.03559 -1.4519,0.61933c-1.03559,-0.41626 -0.61933,-1.45186 -0.61933,-1.45186z" fill="#ff0000" stroke-width="0"></path><path d="M427.71423,306.97039c-1.02661,0.43793 -1.46454,-0.58868 -1.46454,-0.58868l-0.1995,-1.30093c0.16695,-0.41494 0.33391,-0.82993 0.50086,-1.24487c0.41926,-1.22113 0.26618,-2.81792 0.00894,-4.44034c-0.30255,-0.03466 -0.58449,-0.13049 -0.83834,-0.29982c-2.00742,-1.33885 -0.33087,-9.85542 2.76142,-9.04535c1.29662,0.33972 1.70306,2.3301 1.67954,4.74638c0.84908,-0.51998 1.67483,-1.05431 2.25809,-1.66712c0,0 0.77113,-0.80698 1.57803,-0.0358c0.80698,0.77118 0.0358,1.57803 0.0358,1.57803c-0.68059,0.70961 -2.35647,2.38462 -4.12379,3.54022c-0.35897,2.8824 -1.00199,5.60356 -1.26557,6.39694c-0.17462,0.4348 -0.34923,0.86952 -0.52376,1.30432l0.18158,-0.4075c0,0 0.43789,1.02661 -0.58872,1.46458z" fill="#ff0000" stroke-width="0"></path><path d="M305.95249,241.02957c1.02661,-0.43793 1.46454,0.58868 1.46454,0.58868l0.1995,1.30093c-0.16695,0.41494 -0.33391,0.82993 -0.50086,1.24487c-0.41926,1.22113 -0.26618,2.81792 -0.00894,4.44034c0.30255,0.03466 0.58449,0.13049 0.83834,0.29982c2.00742,1.33885 0.33087,9.85542 -2.76142,9.04535c-1.29662,-0.33972 -1.70306,-2.3301 -1.67954,-4.74638c-0.84908,0.51998 -1.67483,1.05431 -2.25809,1.66712c0,0 -0.77113,0.80698 -1.57803,0.0358c-0.80698,-0.77118 -0.0358,-1.57803 -0.0358,-1.57803c0.68059,-0.70961 2.35647,-2.38462 4.12379,-3.54022c0.35897,-2.8824 1.00199,-5.60356 1.26557,-6.39694c0.17462,-0.4348 0.34923,-0.86952 0.52376,-1.30432l-0.18158,0.4075c0,0 -0.43789,-1.02661 0.58872,-1.46458z" fill="#ff0000" stroke-width="0"></path><path d="M386.58395,208.03891l-0.41979,-0.15097c0.43463,0.17488 0.86934,0.34976 1.30397,0.52464c0.7551,0.35892 3.16425,1.77806 5.49324,3.51388c2.05727,-0.47585 4.42616,-0.52627 5.40939,-0.52641c0,0 1.11614,0.00189 1.11425,1.11804c-0.00189,1.11614 -1.11804,1.11425 -1.11804,1.11425c-0.846,-0.00313 -1.80325,0.2231 -2.76618,0.47611c1.76031,1.65532 2.91573,3.32627 2.26355,4.49724c-1.55539,2.79269 -8.86303,-1.89155 -8.44012,-4.26709c0.05346,-0.30048 0.17942,-0.57031 0.36381,-0.81262c-0.99301,-1.30855 -2.0397,-2.52418 -3.21129,-3.0667c-0.41507,-0.16665 -0.83015,-0.33342 -1.24522,-0.50007l-0.80091,-1.0444c0,0 -0.43793,-1.02661 0.58868,-1.46454c1.02661,-0.43793 1.46458,0.58868 1.46458,0.58868z" fill="#ff0000" stroke-width="0"></path><path d="M346.7494,340.29442l0.41979,0.15097c-0.43463,-0.17488 -0.86934,-0.34976 -1.30397,-0.52464c-0.7551,-0.35892 -3.16425,-1.77806 -5.49324,-3.51388c-2.05727,0.47585 -4.42616,0.52627 -5.40939,0.52641c0,0 -1.11614,-0.00189 -1.11425,-1.11804c0.00189,-1.11614 1.11804,-1.11425 1.11804,-1.11425c0.846,0.00313 1.80325,-0.2231 2.76618,-0.47611c-1.76031,-1.65532 -2.91573,-3.32627 -2.26355,-4.49724c1.55539,-2.79269 8.86303,1.89155 8.44012,4.26709c-0.05346,0.30048 -0.17942,0.57031 -0.36381,0.81262c0.99301,1.30855 2.0397,2.52418 3.21129,3.0667c0.41507,0.16665 0.83015,0.33342 1.24522,0.50007l0.80091,1.0444c0,0 0.43793,1.02661 -0.58868,1.46454c-1.02661,0.43793 -1.46458,-0.58868 -1.46458,-0.58868z" fill="#ff0000" stroke-width="0"></path><path d="M279.96106,60c0,-41.44288 33.59611,-75.03894 75.03894,-75.03894c41.44288,0 75.03894,33.59611 75.03894,75.03894c0,41.44288 -33.59611,75.03894 -75.03894,75.03894c-41.44288,0 -75.03894,-33.59611 -75.03894,-75.03894z" fill="none" stroke-width="3"></path><path d="M298.16275,60c0,-31.39038 25.44687,-56.83725 56.83725,-56.83725c31.39038,0 56.83725,25.44687 56.83725,56.83725c0,31.39038 -25.44687,56.83725 -56.83725,56.83725c-31.39038,0 -56.83725,-25.44687 -56.83725,-56.83725z" fill="none" stroke-width="2.5"></path><path d="M303.31416,60c0,-28.54533 23.14052,-51.68584 51.68584,-51.68584c28.54533,0 51.68584,23.14052 51.68584,51.68584c0,28.54533 -23.14052,51.68584 -51.68584,51.68584c-28.54533,0 -51.68584,-23.14052 -51.68584,-51.68584z" fill="none" stroke-width="2.5"></path><path d="M320.14211,60c0,-19.2515 15.60643,-34.85789 34.85789,-34.85789c19.2515,0 34.85789,15.60643 34.85789,34.85789c0,19.2515 -15.60643,34.85789 -34.85789,34.85789c-19.2515,0 -34.85789,-15.60643 -34.85789,-34.85789z" fill="none" stroke-width="2"></path><path d="M339.03064,60c0,-8.81965 7.14971,-15.96936 15.96936,-15.96936c8.81965,0 15.96936,7.14971 15.96936,15.96936c0,8.81965 -7.14971,15.96936 -15.96936,15.96936c-8.81965,0 -15.96936,-7.14971 -15.96936,-15.96936z" fill="none" stroke-width="3"></path><path d="M340.78815,60c0,-7.84901 6.36284,-14.21185 14.21185,-14.21185c7.84901,0 14.21185,6.36284 14.21185,14.21185c0,7.84901 -6.36284,14.21185 -14.21185,14.21185c-7.84901,0 -14.21185,-6.36284 -14.21185,-14.21185z" fill="none" stroke-width="1.5"></path><g fill="none" stroke-width="1.5"><path d="M353.84986,44.13002c24.03285,0.5061 43.3594,20.14635 43.3594,44.30052c0,0.57837 -0.01105,1.15415 -0.03303,1.7271"></path><path d="M356.15018,75.86999c-24.03285,-0.5061 -43.3594,-20.14635 -43.3594,-44.30052c0,-0.57837 0.01105,-1.15415 0.03303,-1.7271"></path></g><g fill="none" stroke-width="1.5"><path d="M339.12999,61.15016c0.5061,-24.03285 20.14635,-43.3594 44.30052,-43.3594c0.57837,0 1.15415,0.01105 1.7271,0.03303"></path><path d="M370.87001,58.84984c-0.5061,24.03285 -20.14635,43.3594 -44.30052,43.3594c-0.57837,0 -1.15415,-0.01105 -1.7271,-0.03303"></path></g><g fill="none" stroke-width="1.5"><path d="M342.56029,50.07863c16.67593,-17.31323 44.21667,-18.18799 61.96233,-1.80153c0.42494,0.39239 0.84041,0.79113 1.24645,1.19599"></path><path d="M367.43971,69.92137c-16.67593,17.31323 -44.21667,18.18799 -61.96233,1.80153c-0.42494,-0.39239 -0.84041,-0.79113 -1.24645,-1.19599"></path></g><g fill="none" stroke-width="1.5"><path d="M345.07865,72.43969c-17.31323,-16.67593 -18.18799,-44.21667 -1.80153,-61.96233c0.39239,-0.42494 0.79113,-0.84041 1.19599,-1.24645"></path><path d="M364.92139,47.56031c17.31323,16.67593 18.18799,44.21667 1.80153,61.96233c-0.39239,0.42494 -0.79113,0.84041 -1.19599,1.24645"></path></g></g></g></svg>