<svg version="1.1" xmlns="http://www.w3.org/2000/svg" xmlns:xlink="http://www.w3.org/1999/xlink" width="153.02272" height="153.02272" viewBox="0,0,153.02272,153.02272"><g transform="translate(-163.48864,-103.48864)"><g data-paper-data="{&quot;isPaintingLayer&quot;:true}" fill="none" fill-rule="nonzero" stroke="#ff0000" stroke-linecap="butt" stroke-linejoin="miter" stroke-miterlimit="10" stroke-dasharray="" stroke-dashoffset="0" style="mix-blend-mode: normal"><path d="M240,255.01136c-41.42761,0 -75.01136,-33.58375 -75.01136,-75.01136c0,-41.42761 33.58375,-75.01136 75.01136,-75.01136c41.42761,0 75.01136,33.58375 75.01136,75.01136c0,41.42761 -33.58375,75.01136 -75.01136,75.01136z" stroke-width="3"/><path d="M240,234.7909c-30.26018,0 -54.79091,-24.53072 -54.79091,-54.79091c0,-30.26018 24.53072,-54.79091 54.79091,-54.79091c30.26018,0 54.79091,24.53072 54.79091,54.79091c0,30.26018 -24.53072,54.79091 -54.79091,54.79091z" stroke-width="2.5"/><path d="M240,228.26817c-26.65777,0 -48.26818,-21.61041 -48.26818,-48.26818c0,-26.65777 21.61041,-48.26818 48.26818,-48.26818c26.65777,0 48.26818,21.61041 48.26818,48.26818c0,26.65777 -21.61041,48.26818 -48.26818,48.26818z" stroke-width="2.5"/><path d="M240,212.61365c-18.012,0 -32.61366,-14.60161 -32.61366,-32.61366c0,-18.012 14.60161,-32.61366 32.61366,-32.61366c18.012,0 32.61366,14.60161 32.61366,32.61366c0,18.012 -14.60161,32.61366 -32.61366,32.61366z" stroke-width="2"/><path d="M240,195.06156c-8.31828,0 -15.06157,-6.74329 -15.06157,-15.06157c0,-8.31828 6.74329,-15.06157 15.06157,-15.06157c8.31828,0 15.06157,6.74329 15.06157,15.06157c0,8.31828 -6.74329,15.06157 -15.06157,15.06157z" stroke-width="1.5"/></g></g></svg>