<svg version="1.1" xmlns="http://www.w3.org/2000/svg" xmlns:xlink="http://www.w3.org/1999/xlink" width="108.14061" height="76.16818" viewBox="0,0,108.14061,76.16818"><g transform="translate(-222.48864,-142.46106)"><g data-paper-data="{&quot;isPaintingLayer&quot;:true}" fill-rule="nonzero" stroke="#ff0000" stroke-linecap="butt" stroke-linejoin="miter" stroke-miterlimit="10" stroke-dasharray="" stroke-dashoffset="0" style="mix-blend-mode: normal"><path d="M240,197.01136c-9.39511,0 -17.01136,-7.61625 -17.01136,-17.01136c0,-9.39511 7.61625,-17.01136 17.01136,-17.01136c9.39511,0 17.01136,7.61625 17.01136,17.01136c0,9.39511 -7.61625,17.01136 -17.01136,17.01136z" fill="none" stroke-width="1"></path><path d="M240,192.42569c-6.86252,0 -12.42569,-5.56317 -12.42569,-12.42569c0,-6.86252 5.56317,-12.42569 12.42569,-12.42569c6.86252,0 12.42569,5.56317 12.42569,12.42569c0,6.86252 -5.56317,12.42569 -12.42569,12.42569z" fill="none" stroke-width="0.5"></path><path d="M240,190.94644c-6.04555,0 -10.94644,-4.90089 -10.94644,-10.94644c0,-6.04555 4.90089,-10.94644 10.94644,-10.94644c6.04555,0 10.94644,4.90089 10.94644,10.94644c0,6.04555 -4.90089,10.94644 -10.94644,10.94644z" fill="none" stroke-width="0.5"></path><path d="M240,187.39625c-4.08483,0 -7.39625,-3.31141 -7.39625,-7.39625c0,-4.08483 3.31141,-7.39625 7.39625,-7.39625c4.08483,0 7.39625,3.31141 7.39625,7.39625c0,4.08483 -3.31141,7.39625 -7.39625,7.39625z" fill="none" stroke-width="0.5"></path><path d="M240,183.41572c-1.88645,0 -3.41572,-1.52927 -3.41572,-3.41572c0,-1.88645 1.52927,-3.41572 3.41572,-3.41572c1.88645,0 3.41572,1.52927 3.41572,3.41572c0,1.88645 -1.52927,3.41572 -3.41572,3.41572z" fill="none" stroke-width="0.5"></path><path d="M316.44309,187.01273c0.1792,0.1792 0,0.35842 0,0.35842l-0.25719,0.15222c-0.10157,-0.00003 -0.20313,-0.00007 -0.30469,-0.0001c-0.29277,0.01508 -0.61624,0.18256 -0.93628,0.37416c0.01833,0.06667 0.02201,0.13419 0.00784,0.20202c-0.11207,0.53631 -2.04837,0.90434 -2.13957,0.18424c-0.03824,-0.30194 0.3467,-0.55614 0.85775,-0.75581c-0.18145,-0.13485 -0.36397,-0.26358 -0.54247,-0.33456c0,0 -0.23531,-0.09413 -0.14119,-0.32944c0.09413,-0.23531 0.32943,-0.14119 0.32943,-0.14119c0.20714,0.0833 0.70197,0.29454 1.0951,0.56901c0.63767,-0.16848 1.26543,-0.26345 1.45492,-0.27511c0.10638,-0.00003 0.21277,-0.00007 0.31915,-0.0001l-0.10122,-0.00375c0,0 0.17921,-0.1792 0.35842,0z" fill="#ff0000" stroke-width="0"></path><path d="M312.89023,218.32061c-0.1792,-0.1792 0,-0.35842 0,-0.35842l0.25719,-0.15222c0.10157,0.00003 0.20313,0.00007 0.30469,0.0001c0.29277,-0.01508 0.61624,-0.18256 0.93628,-0.37416c-0.01833,-0.06667 -0.02201,-0.13419 -0.00784,-0.20202c0.11207,-0.53631 2.04837,-0.90434 2.13957,-0.18424c0.03824,0.30194 -0.3467,0.55614 -0.85775,0.75581c0.18145,0.13485 0.36397,0.26358 0.54247,0.33456c0,0 0.23531,0.09413 0.14119,0.32944c-0.09413,0.23531 -0.32943,0.14119 -0.32943,0.14119c-0.20714,-0.0833 -0.70197,-0.29454 -1.0951,-0.56901c-0.63767,0.16848 -1.26543,0.26345 -1.45492,0.27511c-0.10638,0.00003 -0.21277,0.00007 -0.31915,0.0001l0.10122,0.00375c0,0 -0.17921,0.1792 -0.35842,0z" fill="#ff0000" stroke-width="0"></path><path d="M299.01272,204.08468l0.00375,0.10122c0.00003,-0.10638 0.00007,-0.21277 0.0001,-0.31915c0.01167,-0.18948 0.10664,-0.81724 0.27511,-1.45492c-0.27449,-0.39314 -0.48572,-0.88796 -0.56901,-1.0951c0,0 -0.09413,-0.2353 0.14119,-0.32943c0.23531,-0.09413 0.32944,0.14119 0.32944,0.14119c0.07098,0.1785 0.19971,0.36102 0.33456,0.54247c0.19967,-0.51106 0.45387,-0.89599 0.75581,-0.85775c0.7201,0.0912 0.35207,2.0275 -0.18424,2.13957c-0.06783,0.01417 -0.13535,0.01049 -0.20202,-0.00784c-0.1916,0.32003 -0.35907,0.6435 -0.37416,0.93628c0.00003,0.10157 0.00007,0.20313 0.0001,0.30469l-0.15222,0.25719c0,0 -0.17921,0.1792 -0.35842,0c-0.1792,-0.1792 0,-0.35842 0,-0.35842z" fill="#ff0000" stroke-width="0"></path><path d="M330.32061,201.24866l-0.00375,-0.10122c-0.00003,0.10638 -0.00007,0.21277 -0.0001,0.31915c-0.01167,0.18948 -0.10664,0.81724 -0.27511,1.45492c0.27449,0.39314 0.48572,0.88796 0.56901,1.0951c0,0 0.09413,0.2353 -0.14119,0.32943c-0.23531,0.09413 -0.32944,-0.14119 -0.32944,-0.14119c-0.07098,-0.1785 -0.19971,-0.36102 -0.33456,-0.54247c-0.19967,0.51106 -0.45387,0.89599 -0.75581,0.85775c-0.7201,-0.0912 -0.35207,-2.0275 0.18424,-2.13957c0.06783,-0.01417 0.13535,-0.01049 0.20202,0.00784c0.1916,-0.32003 0.35907,-0.6435 0.37416,-0.93628c-0.00003,-0.10157 -0.00007,-0.20313 -0.0001,-0.30469l0.15222,-0.25719c0,0 0.17921,-0.1792 0.35842,0c0.1792,0.1792 0,0.35842 0,0.35842z" fill="#ff0000" stroke-width="0"></path><path d="M304.85378,190.34154c0.25344,0 0.25344,0.25344 0.25344,0.25344l-0.07424,0.28949c-0.07183,0.07179 -0.14368,0.14359 -0.21551,0.21538c-0.19635,0.21768 -0.30665,0.56485 -0.39747,0.92662c0.0601,0.03419 0.11045,0.07933 0.14838,0.13731c0.29998,0.45847 -0.80895,2.08788 -1.38263,1.64318c-0.24054,-0.18646 -0.14811,-0.63839 0.07208,-1.14096c-0.22367,0.03295 -0.44374,0.07099 -0.62016,0.14702c0,0 -0.23294,0.09983 -0.33278,-0.13312c-0.09983,-0.23295 0.13311,-0.33278 0.13311,-0.33278c0.20537,-0.08757 0.70462,-0.2881 1.1767,-0.372c0.33177,-0.57004 0.70852,-1.08108 0.83424,-1.22331c0.0752,-0.07525 0.1504,-0.15049 0.2256,-0.22574l-0.07424,0.06893c0,0 0.00001,-0.25344 0.25345,-0.25344z" fill="#ff0000" stroke-width="0"></path><path d="M324.47954,214.9918c-0.25344,0 -0.25344,-0.25344 -0.25344,-0.25344l0.07424,-0.28949c0.07183,-0.07179 0.14368,-0.14359 0.21551,-0.21538c0.19635,-0.21768 0.30665,-0.56485 0.39747,-0.92662c-0.0601,-0.03419 -0.11045,-0.07933 -0.14838,-0.13731c-0.29998,-0.45847 0.80895,-2.08788 1.38263,-1.64318c0.24054,0.18646 0.14811,0.63839 -0.07208,1.14096c0.22367,-0.03295 0.44374,-0.07099 0.62016,-0.14702c0,0 0.23294,-0.09983 0.33278,0.13312c0.09983,0.23295 -0.13311,0.33278 -0.13311,0.33278c-0.20537,0.08757 -0.70462,0.2881 -1.1767,0.372c-0.33177,0.57004 -0.70852,1.08108 -0.83424,1.22331c-0.0752,0.07525 -0.1504,0.15049 -0.2256,0.22574l0.07424,-0.06893c0,0 -0.00001,0.25344 -0.25345,0.25344z" fill="#ff0000" stroke-width="0"></path><path d="M304.60034,214.73836l0.07424,0.06893c-0.0752,-0.07525 -0.1504,-0.15049 -0.2256,-0.22574c-0.12573,-0.14224 -0.50247,-0.65328 -0.83424,-1.22331c-0.47208,-0.0839 -0.97133,-0.28443 -1.1767,-0.372c0,0 -0.23294,-0.09982 -0.13311,-0.33278c0.09983,-0.23295 0.33278,-0.13312 0.33278,-0.13312c0.17641,0.07603 0.39649,0.11407 0.62016,0.14702c-0.22019,-0.50256 -0.31262,-0.95449 -0.07208,-1.14096c0.57368,-0.4447 1.68261,1.18471 1.38263,1.64318c-0.03794,0.05799 -0.08829,0.10312 -0.14838,0.13731c0.09081,0.36177 0.20112,0.70893 0.39747,0.92662c0.07183,0.07179 0.14368,0.14359 0.21551,0.21538l0.07424,0.28949c0,0 0,0.25344 -0.25344,0.25344c-0.25344,0 -0.25345,-0.25344 -0.25345,-0.25344z" fill="#ff0000" stroke-width="0"></path><path d="M324.73299,190.59498l-0.07424,-0.06893c0.0752,0.07525 0.1504,0.15049 0.2256,0.22574c0.12573,0.14224 0.50247,0.65328 0.83424,1.22331c0.47208,0.0839 0.97133,0.28443 1.1767,0.372c0,0 0.23294,0.09982 0.13311,0.33278c-0.09983,0.23295 -0.33278,0.13312 -0.33278,0.13312c-0.17641,-0.07603 -0.39649,-0.11407 -0.62016,-0.14702c0.22019,0.50256 0.31262,0.95449 0.07208,1.14096c-0.57368,0.4447 -1.68261,-1.18471 -1.38263,-1.64318c0.03794,-0.05799 0.08829,-0.10312 0.14838,-0.13731c-0.09081,-0.36177 -0.20112,-0.70893 -0.39747,-0.92662c-0.07183,-0.07179 -0.14368,-0.14359 -0.21551,-0.21538l-0.07424,-0.28949c0,0 0,-0.25344 0.25344,-0.25344c0.25344,0 0.25345,0.25344 0.25345,0.25344z" fill="#ff0000" stroke-width="0"></path><path d="M319.17476,217.76231c-0.23515,-0.09452 -0.14063,-0.32968 -0.14063,-0.32968l0.17684,-0.24091c0.09343,-0.03982 0.18687,-0.07964 0.2803,-0.11946c0.26337,-0.12875 0.49519,-0.40971 0.71439,-0.71152c-0.04301,-0.05413 -0.07289,-0.1148 -0.08647,-0.18275c-0.10735,-0.53728 1.52928,-1.63553 1.89571,-1.00895c0.15365,0.26273 -0.10069,0.64757 -0.49242,1.03175c0.21981,0.05284 0.4382,0.09963 0.63024,0.09489c0,0 0.25338,-0.00575 0.25913,0.24762c0.00575,0.25337 -0.24762,0.25913 -0.24762,0.25913c-0.22321,0.00465 -0.76124,0.00451 -1.23055,-0.0937c-0.52043,0.40517 -1.06058,0.73883 -1.2303,0.82391c-0.09784,0.04177 -0.19569,0.08355 -0.29352,0.12533l0.09458,-0.03627c0,0 -0.09453,0.23516 -0.32968,0.14063z" fill="#ff0000" stroke-width="0"></path><path d="M310.15856,187.57101c0.23515,0.09452 0.14063,0.32968 0.14063,0.32968l-0.17684,0.24091c-0.09343,0.03982 -0.18687,0.07964 -0.2803,0.11946c-0.26337,0.12875 -0.49519,0.40971 -0.71439,0.71152c0.04301,0.05413 0.07289,0.1148 0.08647,0.18275c0.10735,0.53728 -1.52928,1.63553 -1.89571,1.00895c-0.15365,-0.26273 0.10069,-0.64757 0.49242,-1.03175c-0.21981,-0.05284 -0.4382,-0.09963 -0.63024,-0.09489c0,0 -0.25338,0.00575 -0.25913,-0.24762c-0.00575,-0.25337 0.24762,-0.25913 0.24762,-0.25913c0.22321,-0.00465 0.76124,-0.00451 1.23055,0.0937c0.52043,-0.40517 1.06058,-0.73883 1.2303,-0.82391c0.09784,-0.04177 0.19569,-0.08355 0.29352,-0.12533l-0.09458,0.03627c0,0 0.09453,-0.23516 0.32968,-0.14063z" fill="#ff0000" stroke-width="0"></path><path d="M328.50892,195.22029l-0.04317,-0.09164c0.04172,0.09787 0.08342,0.19574 0.12513,0.2936c0.06361,0.17887 0.22257,0.79354 0.3178,1.44619c0.40673,0.25392 0.79518,0.62618 0.95307,0.78402c0,0 0.17891,0.17951 -0.00061,0.35841c-0.17952,0.17891 -0.35842,-0.00061 -0.35842,-0.00061c-0.13534,-0.13634 -0.32535,-0.2537 -0.52058,-0.3677c0.01687,0.54842 -0.06591,1.00222 -0.35865,1.08552c-0.69814,0.19866 -1.11935,-1.72677 -0.67002,-2.04028c0.05683,-0.03965 0.12037,-0.06276 0.18889,-0.07207c0.05066,-0.36954 0.0778,-0.73279 -0.0232,-1.008c-0.03988,-0.09341 -0.07976,-0.18682 -0.11964,-0.28021l0.03909,-0.29629c0,0 0.09453,-0.23515 0.32968,-0.14063c0.23515,0.09452 0.14063,0.32967 0.14063,0.32967z" fill="#ff0000" stroke-width="0"></path><path d="M300.82439,210.11305l0.04317,0.09164c-0.04172,-0.09787 -0.08342,-0.19574 -0.12513,-0.2936c-0.06361,-0.17887 -0.22257,-0.79354 -0.3178,-1.44619c-0.40673,-0.25392 -0.79518,-0.62618 -0.95307,-0.78402c0,0 -0.17891,-0.17951 0.00061,-0.35841c0.17952,-0.17891 0.35842,0.00061 0.35842,0.00061c0.13534,0.13634 0.32535,0.2537 0.52058,0.3677c-0.01687,-0.54842 0.06591,-1.00222 0.35865,-1.08552c0.69814,-0.19866 1.11935,1.72677 0.67002,2.04028c-0.05683,0.03965 -0.12037,0.06276 -0.18889,0.07207c-0.05066,0.36954 -0.0778,0.73279 0.0232,1.008c0.03988,0.09341 0.07976,0.18682 0.11964,0.28021l-0.03909,0.29629c0,0 -0.09453,0.23515 -0.32968,0.14063c-0.23515,-0.09452 -0.14063,-0.32967 -0.14063,-0.32967z" fill="#ff0000" stroke-width="0"></path><path d="M328.52861,210.15319c-0.23311,0.09944 -0.33255,-0.13367 -0.33255,-0.13367l-0.0453,-0.2954c0.03791,-0.09422 0.07582,-0.18845 0.11373,-0.28267c0.0952,-0.27728 0.06044,-0.63986 0.00203,-1.00826c-0.0687,-0.00787 -0.13272,-0.02963 -0.19036,-0.06808c-0.45582,-0.30401 -0.07513,-2.23785 0.62703,-2.05391c0.29442,0.07714 0.38671,0.52909 0.38137,1.07775c0.1928,-0.11807 0.3803,-0.2394 0.51274,-0.37855c0,0 0.1751,-0.18324 0.35832,-0.00813c0.18324,0.17511 0.00813,0.35832 0.00813,0.35832c-0.15454,0.16113 -0.53508,0.54147 -0.93638,0.80387c-0.08151,0.6545 -0.22752,1.27239 -0.28737,1.45254c-0.03965,0.09873 -0.0793,0.19744 -0.11893,0.29617l0.04123,-0.09253c0,0 0.09943,0.23311 -0.13368,0.33256z" fill="#ff0000" stroke-width="0"></path><path d="M300.80473,195.18014c0.23311,-0.09944 0.33255,0.13367 0.33255,0.13367l0.0453,0.2954c-0.03791,0.09422 -0.07582,0.18845 -0.11373,0.28267c-0.0952,0.27728 -0.06044,0.63986 -0.00203,1.00826c0.0687,0.00787 0.13272,0.02963 0.19036,0.06808c0.45582,0.30401 0.07513,2.23785 -0.62703,2.05391c-0.29442,-0.07714 -0.38671,-0.52909 -0.38137,-1.07775c-0.1928,0.11807 -0.3803,0.2394 -0.51274,0.37855c0,0 -0.1751,0.18324 -0.35832,0.00813c-0.18324,-0.17511 -0.00813,-0.35832 -0.00813,-0.35832c0.15454,-0.16113 0.53508,-0.54147 0.93638,-0.80387c0.08151,-0.6545 0.22752,-1.27239 0.28737,-1.45254c0.03965,-0.09873 0.0793,-0.19744 0.11893,-0.29617l-0.04123,0.09253c0,0 -0.09943,-0.23311 0.13368,-0.33256z" fill="#ff0000" stroke-width="0"></path><path d="M319.18924,187.61333l-0.09532,-0.03428c0.09869,0.03971 0.1974,0.07942 0.29609,0.11913c0.17146,0.0815 0.7185,0.40374 1.24734,0.79789c0.46714,-0.10805 1.00504,-0.1195 1.2283,-0.11953c0,0 0.25344,0.00043 0.25301,0.25387c-0.00043,0.25344 -0.25387,0.25301 -0.25387,0.25301c-0.1921,-0.00071 -0.40946,0.05066 -0.62811,0.10811c0.39971,0.37587 0.66207,0.75529 0.51398,1.02118c-0.35318,0.63413 -2.01251,-0.42951 -1.91648,-0.96892c0.01214,-0.06823 0.04074,-0.1295 0.08261,-0.18452c-0.22548,-0.29713 -0.46315,-0.57316 -0.72918,-0.69635c-0.09425,-0.03784 -0.1885,-0.07571 -0.28275,-0.11355l-0.18186,-0.23715c0,0 -0.09944,-0.23311 0.13367,-0.33255c0.23311,-0.09944 0.33256,0.13367 0.33256,0.13367z" fill="#ff0000" stroke-width="0"></path><path d="M310.14409,217.72001l0.09532,0.03428c-0.09869,-0.03971 -0.1974,-0.07942 -0.29609,-0.11913c-0.17146,-0.0815 -0.7185,-0.40374 -1.24734,-0.79789c-0.46714,0.10805 -1.00504,0.1195 -1.2283,0.11953c0,0 -0.25344,-0.00043 -0.25301,-0.25387c0.00043,-0.25344 0.25387,-0.25301 0.25387,-0.25301c0.1921,0.00071 0.40946,-0.05066 0.62811,-0.10811c-0.39971,-0.37587 -0.66207,-0.75529 -0.51398,-1.02118c0.35318,-0.63413 2.01251,0.42951 1.91648,0.96892c-0.01214,0.06823 -0.04074,0.1295 -0.08261,0.18452c0.22548,0.29713 0.46315,0.57316 0.72918,0.69635c0.09425,0.03784 0.1885,0.07571 0.28275,0.11355l0.18186,0.23715c0,0 0.09944,0.23311 -0.13367,0.33255c-0.23311,0.09944 -0.33256,-0.13367 -0.33256,-0.13367z" fill="#ff0000" stroke-width="0"></path><path d="M267.96106,160c0,-9.41035 7.6286,-17.03894 17.03894,-17.03894c9.41035,0 17.03894,7.6286 17.03894,17.03894c0,9.41035 -7.6286,17.03894 -17.03894,17.03894c-9.41035,0 -17.03894,-7.6286 -17.03894,-17.03894z" fill="none" stroke-width="1"></path><path d="M272.09408,160c0,-7.12775 5.77817,-12.90592 12.90592,-12.90592c7.12775,0 12.90592,5.77817 12.90592,12.90592c0,7.12775 -5.77817,12.90592 -12.90592,12.90592c-7.12775,0 -12.90592,-5.77817 -12.90592,-12.90592z" fill="none" stroke-width="0.5"></path><path d="M273.2638,160c0,-6.48173 5.25447,-11.7362 11.7362,-11.7362c6.48173,0 11.7362,5.25447 11.7362,11.7362c0,6.48173 -5.25447,11.7362 -11.7362,11.7362c-6.48173,0 -11.7362,-5.25447 -11.7362,-11.7362z" fill="none" stroke-width="0.5"></path><path d="M277.08489,160c0,-4.3714 3.54372,-7.91511 7.91511,-7.91511c4.3714,0 7.91511,3.54372 7.91511,7.91511c0,4.3714 -3.54372,7.91511 -7.91511,7.91511c-4.3714,0 -7.91511,-3.54372 -7.91511,-7.91511z" fill="none" stroke-width="0.5"></path><path d="M281.37387,160c0,-2.00266 1.62347,-3.62613 3.62613,-3.62613c2.00266,0 3.62613,1.62347 3.62613,3.62613c0,2.00266 -1.62347,3.62613 -3.62613,3.62613c-2.00266,0 -3.62613,-1.62347 -3.62613,-3.62613z" fill="none" stroke-width="0.5"></path><path d="M281.60904,160c0,-1.87278 1.51818,-3.39096 3.39096,-3.39096c1.87278,0 3.39096,1.51818 3.39096,3.39096c0,1.87278 -1.51818,3.39096 -3.39096,3.39096c-1.87278,0 -3.39096,-1.51818 -3.39096,-3.39096z" fill="none" stroke-width="0.5"></path><g fill="none" stroke-width="0.5"><path d="M284.73884,156.39644c5.45709,0.11492 9.84553,4.57459 9.84553,10.05923c0,0.13133 -0.00251,0.26207 -0.0075,0.39217"></path><path d="M285.26117,163.60357c-5.45709,-0.11492 -9.84553,-4.57459 -9.84553,-10.05923c0,-0.13133 0.00251,-0.26207 0.0075,-0.39217"></path></g><g fill="none" stroke-width="0.5"><path d="M281.39643,160.26117c0.11492,-5.45709 4.57459,-9.84553 10.05923,-9.84553c0.13133,0 0.26207,0.00251 0.39217,0.0075"></path><path d="M288.60357,159.73884c-0.11492,5.45709 -4.57459,9.84553 -10.05923,9.84553c-0.13133,0 -0.26207,-0.00251 -0.39217,-0.0075"></path></g><g fill="none" stroke-width="0.5"><path d="M282.17534,157.74718c3.78657,-3.93128 10.04019,-4.12991 14.06966,-0.40907c0.09649,0.0891 0.19083,0.17964 0.28303,0.27157"></path><path d="M287.82466,162.25283c-3.78657,3.93128 -10.04019,4.12991 -14.06966,0.40907c-0.09649,-0.0891 -0.19083,-0.17964 -0.28303,-0.27157"></path></g><g fill="none" stroke-width="0.5"><path d="M282.74718,162.82466c-3.93128,-3.78657 -4.12991,-10.04019 -0.40907,-14.06966c0.0891,-0.09649 0.17964,-0.19083 0.27157,-0.28303"></path><path d="M287.25283,157.17535c3.93128,3.78657 4.12991,10.04019 0.40907,14.06966c-0.0891,0.09649 -0.17964,0.19083 -0.27157,0.28303"></path></g></g></g></svg>