<svg version="1.1" xmlns="http://www.w3.org/2000/svg" xmlns:xlink="http://www.w3.org/1999/xlink" width="29.93221" height="10.50347" viewBox="0,0,29.93221,10.50347"><g transform="translate(-225.03389,-174.74826)"><g data-paper-data="{&quot;isPaintingLayer&quot;:true}" fill-rule="nonzero" stroke="none" stroke-linecap="butt" stroke-linejoin="miter" stroke-miterlimit="10" stroke-dasharray="" stroke-dashoffset="0" style="mix-blend-mode: normal"><path d="M237.25554,174.74826c0,0 0.49421,0.25526 2.65315,0.66301c1.47431,-0.05444 4.26916,0.44376 6.68158,0.73242c2.42768,0.29048 4.86446,1.06089 5.97874,1.7458c1.98191,1.21822 2.54665,1.9609 2.36508,2.60975c-0.14735,0.52654 -0.61858,0.89072 -2.5614,2.20025c-1.8568,0.57187 -3.89325,1.09374 -5.51908,1.26919c-2.57619,0.27801 -4.95896,0.86635 -6.94679,0.77366c-1.52654,0.36677 -2.65128,0.50939 -2.65128,0.50939z" fill="#160067" stroke-width="0"/><path d="M237.26763,185.00546c0,0 -1.16676,0.13964 -2.77716,-0.27476c-1.09972,0.05533 -2.38636,-0.45099 -4.18584,-0.74436c-1.81086,-0.29522 -3.32922,-0.28008 -4.1604,-0.97616c-1.47835,-1.23808 -1.1015,-2.29218 -0.96606,-2.95161c0.10991,-0.53513 -0.43647,-1.70336 1.01274,-3.03425c1.38503,-0.5812 2.70455,-0.81228 3.91728,-0.99059c1.92164,-0.28255 2.90089,-0.78071 4.38367,-0.68652c1.13868,-0.37275 2.77576,-0.21841 2.77576,-0.21841z" fill="#160067" stroke-width="0"/><path d="M237.84334,175.54354c-0.03989,-0.03587 -0.11894,-0.12974 -0.03457,-0.25631c0.07931,-0.11896 0.18748,-0.09354 0.24043,-0.07093c0.04233,-0.01649 0.07998,-0.01649 0.07998,-0.01649l0.13091,0.12776c0.0596,0.02086 0.12184,0.0322 0.18321,0.0293h0.23559v0c0.10843,0 0.19633,0.0879 0.19633,0.19633c0,0.10843 -0.0879,0.19633 -0.19633,0.19633h-0.04874c0.00255,0.01263 0.00389,0.02569 0.00389,0.03907c0,0.00106 -0.00001,0.00212 -0.00003,0.00318c0.26146,-0.02676 0.91174,-0.19931 1.14431,-0.19931h0.23559v0c0.10843,0 0.19633,0.0879 0.19633,0.19633c0,0.05421 -0.02197,0.10329 -0.0575,0.13883l-0.12172,0.12171c0.12442,0.02639 0.39798,-0.10254 0.55194,-0.07684c0.39599,0.06611 0.78011,0.13803 1.18032,0.17351l0.02497,0.02373l0.00579,-0.01316l0.03675,0.01616l0.09878,-0.02469l0.01706,0.06823c0.52837,-0.17867 1.06715,-0.15262 1.67971,-0.15262h0.23559c0.10843,0 0.19633,0.0879 0.19633,0.19633c0,0.05421 -0.02197,0.10329 -0.0575,0.13883l-0.10884,0.10884c0.19949,0.02401 0.41353,0.08811 0.54372,0.1072c0.8384,0.12289 1.55968,-0.03339 2.39402,0.2442l0.2313,0.0771c0.0599,0.01842 0.10759,0.06474 0.12791,0.12379c0.58022,-0.09682 1.37103,0.02463 1.8561,0.02463h0.31412v0c0.10843,0 0.19633,0.0879 0.19633,0.19633c0,0.04458 -0.01486,0.0857 -0.0399,0.11866c0.21003,0.13123 1.14916,0.15661 1.51092,0.33875c0.9831,0.49497 1.99915,0.98494 3.02626,1.5241c0.04505,0.08583 0.09011,0.17166 0.13516,0.25749l0.0219,-0.0219l0.14331,0.14332l0.21689,0.14459c0.05413,0.03495 0.08995,0.09582 0.08995,0.16504c0,0.08831 -0.05832,0.16301 -0.13853,0.18769l-0.2313,0.0771l-0.02742,-0.08225c-0.25716,0.06179 -0.37183,0.04552 -0.0043,0.28236l0.23306,0.15537c0.05413,0.03495 0.08995,0.09582 0.08995,0.16504c0,0.0965 -0.06963,0.17675 -0.16139,0.19323l-0.38146,0.07629l-0.00088,-0.00444c-0.01366,0.00311 -0.02742,0.00586 -0.0413,0.00822c-0.13968,0.02376 -0.47286,-0.27648 -0.39439,-0.15851c0.08204,0.12334 -0.00412,0.32961 -0.11332,0.42969c-0.2196,0.20123 -0.68854,0.36936 -0.72666,0.69601l0.11276,0.11276c0.03553,0.03553 0.0575,0.08461 0.0575,0.13883c0,0.10843 -0.0879,0.19633 -0.19633,0.19633c-0.01797,0 -0.03536,-0.00241 -0.05189,-0.00693l-0.25599,-0.064c-0.46899,0.03572 -0.84306,0.07637 -1.42962,0.0088c-0.28033,-0.03229 -1.06252,-0.29097 -0.838,-0.12005c0.29984,0.22826 0.20756,0.23516 -0.16535,0.47634c-0.1522,0.09843 -0.82493,0.31028 -0.84733,0.51258l0.1146,0.11459c0.03553,0.03553 0.0575,0.08461 0.0575,0.13883c0,0.10843 -0.0879,0.19633 -0.19633,0.19633c-0.02331,0 -0.04568,-0.00407 -0.06643,-0.01153l-0.23124,-0.07708l0.03194,-0.09581l-0.01695,-0.01695c-0.36499,-0.09478 -0.82494,-0.20381 -0.89758,-0.10973c-0.29401,0.38077 -1.4971,0.49127 -2.13965,0.69532c-0.71391,0.22671 -1.5156,-0.18729 -2.21064,0.16024c-2.01365,0.02271 -4.10001,0.85018 -6.09196,0.86908c-0.41883,0 -0.83766,0 -1.25649,0h-0.23559c-0.10843,0 -0.19633,-0.0879 -0.19633,-0.19633c0,-0.06909 0.03569,-0.12983 0.08962,-0.16483c-0.17179,-0.01238 -0.33876,-0.0311 -0.44301,-0.0315c-0.75796,-0.00291 -1.37927,-0.23069 -2.13652,-0.31555c-0.22714,-0.02545 -0.54368,0.05429 -0.67234,-0.13461c-0.05354,-0.07861 -0.04931,-0.17635 -0.0378,-0.2765c-0.31504,0.10839 -0.82371,0.05287 -1.0992,0.01892c-0.93869,-0.11567 -1.90292,-0.42273 -2.8431,-0.63052c-0.31175,-0.0689 -1.24533,-0.14987 -0.84453,-0.57164c0.08969,-0.09439 -0.24641,0.10369 -0.37662,0.10369c-0.31389,0 -0.6254,0.00014 -0.93897,-0.01494l-0.04134,-0.06492l-0.02236,0.02236l-0.15706,-0.15706c-0.00982,-0.00982 -0.01861,-0.02068 -0.02618,-0.03239c-0.20915,0.0597 -0.49292,0.01582 -0.49997,-0.23205c-0.00612,-0.21521 0.50882,-0.23175 0.4696,-0.44345c-0.01921,-0.1037 -0.17582,-0.1784 -0.14739,-0.27996c0.02644,-0.09448 0.35206,-0.11012 0.25872,-0.14034c-0.24741,-0.08011 -0.82438,-0.34059 -0.89477,-0.62663c-0.03944,-0.16026 0.47746,-0.34401 0.31656,-0.38069c-0.50595,-0.11535 0.03829,-1.27926 0.33819,-1.56187c0.0519,-0.16428 -0.12126,-0.334 -0.1069,-0.50568c0.05438,-0.64995 1.00235,-0.89231 1.45754,-0.99509c0.10945,-0.02471 0.24498,-0.13752 0.3747,-0.18133c-0.01715,-0.02916 -0.027,-0.06314 -0.027,-0.09942c0,-0.0965 0.06963,-0.17675 0.16139,-0.19323l0.38146,-0.07629l0.00069,0.00346c0.44192,-0.20399 0.93587,-0.41817 1.20334,-0.45632c1.55965,-0.2225 3.30528,-0.10606 4.79276,-0.70701c0.0287,-0.0091 0.06014,-0.01993 0.09222,-0.0289c-0.02224,-0.03182 -0.03529,-0.07055 -0.03529,-0.11233c0,-0.10843 0.0879,-0.19633 0.19633,-0.19633h0.39265v0.03564c0.9386,-0.15359 1.91414,-0.07463 2.85538,0.0725zM243.46928,176.89792v0.02958h-0.23559c-0.10843,0 -0.19633,-0.0879 -0.19633,-0.19633c0,-0.06923 0.03583,-0.13009 0.08995,-0.16504l0.12304,-0.08202c-0.38403,0.04131 -0.86746,0.10553 -1.17643,0.02152c-0.03238,0.06393 -0.0987,0.10776 -0.17526,0.10776h-0.23559c-0.0736,0 -0.13774,-0.0405 -0.17136,-0.10042c-0.56973,-0.04669 -1.85184,-0.17873 -1.74914,-0.52431l-0.00267,-0.00267c-0.46075,0.01968 -1.00768,0.37713 -1.47185,0.05221c-0.02864,-0.02005 -0.05398,-0.0407 -0.07626,-0.06176l-0.15337,-0.00538l0.00013,-0.0037l-0.01286,0.00283c-0.49791,-0.08251 -1.10061,-0.2471 -1.60483,-0.22158c-0.43921,0.02222 -1.0054,0.20997 -1.43289,0.03375v0.04573h-0.08796c-0.11614,0.13665 -0.25771,0.2544 -0.42173,0.31316c-1.12477,0.44581 -2.66811,0.61427 -3.87497,0.7073c-0.2429,0.01872 -1.11578,-0.12788 -1.27829,0.01127c-0.25169,0.2155 -0.45773,0.55711 -0.90595,0.44204l0.0032,0.01602l-0.06672,0.01335c-0.43601,0.53984 -1.11551,0.43606 -1.54351,0.86362c-0.11547,0.11535 -0.47132,0.08843 -0.42413,0.24467c0.08992,0.29768 0.18662,0.35259 0.05016,0.7508c-0.18166,0.18894 -0.69835,0.94303 -0.54112,1.14401c0.05727,0.0732 0.23979,0.02898 0.25107,0.12122c0.02066,0.16899 -0.40615,0.26298 -0.31169,0.40461c0.1314,0.19703 0.72249,0.29848 0.8329,0.47279c0.09547,0.15073 -0.0345,0.70049 -0.2706,0.92622c0.02426,0.00024 0.04547,0.00354 0.06093,0.01095c0.00958,0.0046 0.01902,0.00943 0.02833,0.01447l0.00231,-0.00693l0.2313,0.0771c0.06875,0.02114 0.12141,0.07903 0.13507,0.15075c0.19721,-0.00768 0.39476,-0.00232 0.59245,-0.00232c0.14445,0 0.62903,-0.02575 0.72281,0.10369c0.05798,0.08002 -0.16436,0.16014 -0.14704,0.25743c0.02473,0.13888 0.28572,0.00064 0.42138,0.03933c0.34316,0.09785 0.67775,0.2111 1.01122,0.31158c1.02243,0.30806 2.18195,0.20519 3.25318,0.42085v-0.03344h0.31412c0.10843,0 0.19633,0.0879 0.19633,0.19633c0,0.06796 -0.03453,0.12785 -0.08699,0.16309c0.08696,0.01198 0.18098,0.02853 0.23624,0.03471c0.25743,0.02885 0.51647,0.04346 0.7732,0.07801c0.69514,0.09352 1.56974,0.14184 2.33658,0.32936v-0.01619h0.23559c0.10843,0 0.19633,0.0879 0.19633,0.19633c0,0.04419 -0.0146,0.08498 -0.03925,0.1178c0.20941,0 0.41882,0 0.62823,0c1.9501,0.02422 4.03408,-0.88398 6.00175,-0.85858c0.69525,-0.34763 1.50005,0.09081 2.18708,-0.15389c0.49193,-0.17521 0.90639,-0.32425 1.439,-0.39855c0.17291,-0.02412 0.39769,0.17869 0.52087,0.05497c0.13325,-0.13384 0.24397,-0.33208 0.42896,-0.37015c0.19244,-0.03962 0.53759,0.01045 0.73294,0.15096c0.05547,-0.25359 0.20382,-0.30454 0.51716,-0.51211c0.18849,-0.12486 0.62923,-0.0418 0.62316,-0.2678c-0.00287,-0.10689 -0.20033,-0.20315 -0.13762,-0.28976c0.22224,-0.30701 1.33561,-0.06074 1.62682,-0.00803c0.31691,0.05737 0.71134,-0.12498 0.96453,-0.03922c0.08945,-0.6223 0.87325,-0.66607 0.92453,-1.08314c0.01256,-0.10217 -0.11812,-0.23112 -0.04673,-0.30528c0.1132,-0.11756 0.29087,-0.11953 0.46722,-0.08061c-0.11364,-0.09648 -0.20325,-0.2164 -0.18919,-0.37366c0.01648,-0.18449 0.17652,-0.30882 0.34701,-0.34386c-0.04447,-0.09442 -0.08894,-0.18885 -0.1334,-0.28327c-0.79371,-0.37379 -1.57668,-0.65294 -2.37076,-0.97834c-0.33269,-0.13633 -0.47889,-0.4423 -0.84359,-0.5426c-0.33516,-0.09218 -1.14815,-0.13355 -1.38335,-0.33561c-0.04521,-0.03885 -0.07838,-0.12612 -0.08679,-0.20627h-0.04559c-0.72583,0 -1.4653,0.08433 -2.15038,-0.08574l-0.01608,0.0804l-0.38146,-0.07629c-0.09176,-0.01648 -0.16139,-0.09672 -0.16139,-0.19323c0,-0.02422 0.00439,-0.04742 0.01241,-0.06884c-0.94559,-0.20758 -1.93569,-0.0501 -2.87878,-0.23559z" fill="#000000" stroke-width="0.5"/></g></g></svg>