<svg version="1.1" xmlns="http://www.w3.org/2000/svg" xmlns:xlink="http://www.w3.org/1999/xlink" width="22.17748" height="29.7116" viewBox="0,0,22.17748,29.7116"><g transform="translate(-228.91125,-165.1442)"><g fill="#ffffff" stroke-miterlimit="10"><path d="M244.76666,173.98837c0,0 0.11894,-2.00518 -0.40157,-2.70212c-0.49284,-0.65991 -2.64301,-1.37452 -2.64301,-1.37452c0,0 2.04221,0.09128 2.70212,-0.40157c0.69695,-0.5205 1.37452,-2.64301 1.37452,-2.64301c0,0 -0.04581,2.10309 0.45692,2.77624c0.51196,0.6855 2.58765,1.30039 2.58765,1.30039c0,0 -2.12415,-0.14554 -2.8316,0.3828c-0.64581,0.48231 -1.24504,2.66178 -1.24504,2.66178z" stroke="#ffffff" stroke-width="0.5"/><g stroke="none" stroke-width="0"><path d="M228.91125,193.46071l2.59994,-5.06057l2.71543,1.39509l-2.59994,5.06057z"/><path d="M229.05563,188.77664l0.63413,-1.23429l6.29486,3.23407l-0.63413,1.23429z"/><path d="M231.69463,188.65039l10.02608,-20.12226c0,0 1.13694,4.87667 0.1019,7.69674c-1.03504,2.82007 -7.90626,13.56695 -7.90626,13.56695z"/></g></g></g></svg>