<svg version="1.1" xmlns="http://www.w3.org/2000/svg" xmlns:xlink="http://www.w3.org/1999/xlink" width="34.61538" height="34.61538" viewBox="0,0,34.61538,34.61538"><g transform="translate(-222.69231,-162.69231)"><g data-paper-data="{&quot;isPaintingLayer&quot;:true}" fill-rule="nonzero" stroke-linecap="butt" stroke-linejoin="miter" stroke-miterlimit="10" stroke-dasharray="" stroke-dashoffset="0" style="mix-blend-mode: normal"><g><path d="M223.19231,180c0,-9.28263 7.52506,-16.80769 16.80769,-16.80769c9.28263,0 16.80769,7.52506 16.80769,16.80769c0,9.28263 -7.52506,16.80769 -16.80769,16.80769c-9.28263,0 -16.80769,-7.52506 -16.80769,-16.80769z" fill="none" stroke="#000000" stroke-width="1"/><path d="M227.26924,180c0,-7.03101 5.69975,-12.73076 12.73076,-12.73076c7.03101,0 12.73076,5.69975 12.73076,12.73076c0,7.03101 -5.69975,12.73076 -12.73076,12.73076c-7.03101,0 -12.73076,-5.69975 -12.73076,-12.73076z" fill="none" stroke="#000000" stroke-width="0.5"/><path d="M228.42308,180c0,-6.39376 5.18316,-11.57692 11.57692,-11.57692c6.39376,0 11.57692,5.18316 11.57692,11.57692c0,6.39376 -5.18316,11.57692 -11.57692,11.57692c-6.39376,0 -11.57692,-5.18316 -11.57692,-11.57692z" fill="none" stroke="#000000" stroke-width="0.5"/><path d="M232.19231,180c0,-4.31207 3.49562,-7.80769 7.80769,-7.80769c4.31207,0 7.80769,3.49562 7.80769,7.80769c0,4.31207 -3.49562,7.80769 -7.80769,7.80769c-4.31207,0 -7.80769,-3.49562 -7.80769,-7.80769z" fill="none" stroke="#000000" stroke-width="0.5"/><path d="M236.42308,180c0,-1.97548 1.60144,-3.57692 3.57692,-3.57692c1.97548,0 3.57692,1.60144 3.57692,3.57692c0,1.97548 -1.60144,3.57692 -3.57692,3.57692c-1.97548,0 -3.57692,-1.60144 -3.57692,-3.57692z" fill="none" stroke="#000000" stroke-width="0.5"/><path d="M237.11539,180c0,-1.59313 1.29148,-2.88461 2.88461,-2.88461c1.59313,0 2.88461,1.29148 2.88461,2.88461c0,1.59313 -1.29148,2.88461 -2.88461,2.88461c-1.59313,0 -2.88461,-1.29148 -2.88461,-2.88461z" fill="none" stroke="#000000" stroke-width="0.5"/><g fill="#000000" stroke="none" stroke-width="0.5"><path d="M241.75232,164.55852c0.17677,0.17677 0,0.35356 0,0.35356l-0.2537,0.15015c-0.10019,-0.00003 -0.20037,-0.00007 -0.30055,-0.0001c-0.2888,0.01488 -0.60788,0.18008 -0.92357,0.36908c0.01808,0.06577 0.02171,0.13237 0.00773,0.19928c-0.11055,0.52903 -2.02057,0.89207 -2.11053,0.18174c-0.03772,-0.29784 0.34199,-0.54859 0.84611,-0.74555c-0.17899,-0.13302 -0.35903,-0.26 -0.53511,-0.33002c0,0 -0.23212,-0.09285 -0.13927,-0.32497c0.09285,-0.23212 0.32496,-0.13927 0.32496,-0.13927c0.20433,0.08217 0.69244,0.29054 1.08024,0.56129c0.62902,-0.16619 1.24826,-0.25987 1.43517,-0.27138c0.10494,-0.00003 0.20988,-0.00007 0.31482,-0.0001l-0.09985,-0.0037c0,0 0.17678,-0.17677 0.35356,0z"/><path d="M238.24768,195.44149c-0.17677,-0.17677 0,-0.35356 0,-0.35356l0.2537,-0.15015c0.10019,0.00003 0.20037,0.00007 0.30055,0.0001c0.2888,-0.01488 0.60788,-0.18008 0.92357,-0.36908c-0.01808,-0.06577 -0.02171,-0.13237 -0.00773,-0.19928c0.11055,-0.52903 2.02057,-0.89207 2.11053,-0.18174c0.03772,0.29784 -0.34199,0.54859 -0.84611,0.74555c0.17899,0.13302 0.35903,0.26 0.53511,0.33002c0,0 0.23212,0.09285 0.13927,0.32497c-0.09285,0.23212 -0.32496,0.13927 -0.32496,0.13927c-0.20433,-0.08217 -0.69244,-0.29054 -1.08024,-0.56129c-0.62902,0.16619 -1.24826,0.25987 -1.43517,0.27138c-0.10494,0.00003 -0.20988,0.00007 -0.31482,0.0001l0.09985,0.0037c0,0 -0.17678,0.17677 -0.35356,0z"/></g><g data-paper-data="{&quot;index&quot;:null}" fill="#000000" stroke="none" stroke-width="0.5"><path d="M224.55852,181.39877l0.0037,0.09985c0.00003,-0.10494 0.00007,-0.20988 0.0001,-0.31482c0.01151,-0.18691 0.10519,-0.80615 0.27138,-1.43517c-0.27076,-0.3878 -0.47913,-0.87591 -0.56129,-1.08024c0,0 -0.09285,-0.23211 0.13927,-0.32496c0.23212,-0.09285 0.32497,0.13927 0.32497,0.13927c0.07002,0.17608 0.197,0.35612 0.33002,0.53511c0.19696,-0.50412 0.44771,-0.88383 0.74555,-0.84611c0.71033,0.08996 0.34729,1.99998 -0.18174,2.11053c-0.06691,0.01398 -0.13351,0.01035 -0.19928,-0.00773c-0.189,0.31569 -0.3542,0.63477 -0.36908,0.92357c0.00003,0.10019 0.00007,0.20037 0.0001,0.30055l-0.15015,0.2537c0,0 -0.17678,0.17677 -0.35356,0c-0.17677,-0.17677 0,-0.35356 0,-0.35356z"/><path d="M255.44149,178.60124l-0.0037,-0.09985c-0.00003,0.10494 -0.00007,0.20988 -0.0001,0.31482c-0.01151,0.18691 -0.10519,0.80615 -0.27138,1.43517c0.27076,0.3878 0.47913,0.87591 0.56129,1.08024c0,0 0.09285,0.23211 -0.13927,0.32496c-0.23212,0.09285 -0.32497,-0.13927 -0.32497,-0.13927c-0.07002,-0.17608 -0.197,-0.35612 -0.33002,-0.53511c-0.19696,0.50412 -0.44771,0.88383 -0.74555,0.84611c-0.71033,-0.08996 -0.34729,-1.99998 0.18174,-2.11053c0.06691,-0.01398 0.13351,-0.01035 0.19928,0.00773c0.189,-0.31569 0.3542,-0.63477 0.36908,-0.92357c-0.00003,-0.10019 -0.00007,-0.20037 -0.0001,-0.30055l0.15015,-0.2537c0,0 0.17678,-0.17677 0.35356,0c0.17677,0.17677 0,0.35356 0,0.35356z"/></g><g fill="#000000" stroke="none" stroke-width="0.5"><path d="M230.3203,167.84215c0.25,0 0.25,0.25 0.25,0.25l-0.07323,0.28556c-0.07086,0.07082 -0.14173,0.14164 -0.21259,0.21246c-0.19369,0.21473 -0.30249,0.55718 -0.39208,0.91404c0.05928,0.03373 0.10895,0.07825 0.14637,0.13545c0.29591,0.45225 -0.79797,2.05954 -1.36386,1.62088c-0.23728,-0.18393 -0.1461,-0.62973 0.0711,-1.12547c-0.22063,0.0325 -0.43772,0.07003 -0.61174,0.14502c0,0 -0.22978,0.09848 -0.32826,-0.13131c-0.09848,-0.22979 0.1313,-0.32826 0.1313,-0.32826c0.20258,-0.08638 0.69506,-0.28419 1.16073,-0.36695c0.32727,-0.5623 0.6989,-1.06641 0.82292,-1.20671c0.07418,-0.07423 0.14836,-0.14845 0.22254,-0.22268l-0.07323,0.06799c0,0 0.00001,-0.25 0.25001,-0.25z"/><path d="M249.6797,192.15786c-0.25,0 -0.25,-0.25 -0.25,-0.25l0.07323,-0.28556c0.07086,-0.07082 0.14173,-0.14164 0.21259,-0.21246c0.19369,-0.21473 0.30249,-0.55718 0.39208,-0.91404c-0.05928,-0.03373 -0.10895,-0.07825 -0.14637,-0.13545c-0.29591,-0.45225 0.79797,-2.05954 1.36386,-1.62088c0.23728,0.18393 0.1461,0.62973 -0.0711,1.12547c0.22063,-0.0325 0.43772,-0.07003 0.61174,-0.14502c0,0 0.22978,-0.09848 0.32826,0.13131c0.09848,0.22979 -0.1313,0.32826 -0.1313,0.32826c-0.20258,0.08638 -0.69506,0.28419 -1.16073,0.36695c-0.32727,0.5623 -0.6989,1.06641 -0.82292,1.20671c-0.07418,0.07423 -0.14836,0.14845 -0.22254,0.22268l0.07323,-0.06799c0,0 -0.00001,0.25 -0.25001,0.25z"/></g><g data-paper-data="{&quot;index&quot;:null}" fill="#000000" stroke="none" stroke-width="0.5"><path d="M230.0703,191.90786l0.07323,0.06799c-0.07418,-0.07423 -0.14836,-0.14845 -0.22254,-0.22268c-0.12402,-0.14031 -0.49565,-0.64441 -0.82292,-1.20671c-0.46567,-0.08276 -0.95815,-0.28057 -1.16073,-0.36695c0,0 -0.22978,-0.09847 -0.1313,-0.32826c0.09848,-0.22979 0.32826,-0.13131 0.32826,-0.13131c0.17402,0.075 0.39111,0.11252 0.61174,0.14502c-0.2172,-0.49574 -0.30838,-0.94154 -0.0711,-1.12547c0.56589,-0.43866 1.65977,1.16863 1.36386,1.62088c-0.03743,0.0572 -0.08709,0.10172 -0.14637,0.13545c0.08958,0.35686 0.19839,0.69931 0.39208,0.91404c0.07086,0.07082 0.14173,0.14164 0.21259,0.21246l0.07323,0.28556c0,0 0,0.25 -0.25,0.25c-0.25,0 -0.25001,-0.25 -0.25001,-0.25z"/><path d="M249.92971,168.09215l-0.07323,-0.06799c0.07418,0.07423 0.14836,0.14845 0.22254,0.22268c0.12402,0.14031 0.49565,0.64441 0.82292,1.20671c0.46567,0.08276 0.95815,0.28057 1.16073,0.36695c0,0 0.22978,0.09847 0.1313,0.32826c-0.09848,0.22979 -0.32826,0.13131 -0.32826,0.13131c-0.17402,-0.075 -0.39111,-0.11252 -0.61174,-0.14502c0.2172,0.49574 0.30838,0.94154 0.0711,1.12547c-0.56589,0.43866 -1.65977,-1.16863 -1.36386,-1.62088c0.03743,-0.0572 0.08709,-0.10172 0.14637,-0.13545c-0.08958,-0.35686 -0.19839,-0.69931 -0.39208,-0.91404c-0.07086,-0.07082 -0.14173,-0.14164 -0.21259,-0.21246l-0.07323,-0.28556c0,0 0,-0.25 0.25,-0.25c0.25,0 0.25001,0.25 0.25001,0.25z"/></g><g data-paper-data="{&quot;index&quot;:null}" fill="#000000" stroke="none" stroke-width="0.5"><path d="M244.44692,194.89077c-0.23196,-0.09324 -0.13872,-0.32521 -0.13872,-0.32521l0.17444,-0.23764c0.09216,-0.03928 0.18433,-0.07856 0.2765,-0.11784c0.2598,-0.127 0.48847,-0.40415 0.70469,-0.70186c-0.04243,-0.0534 -0.0719,-0.11324 -0.0853,-0.18027c-0.10589,-0.52999 1.50852,-1.61333 1.86998,-0.99526c0.15156,0.25916 -0.09932,0.63878 -0.48574,1.01775c0.21683,0.05212 0.43225,0.09828 0.62169,0.0936c0,0 0.24994,-0.00567 0.25561,0.24426c0.00567,0.24993 -0.24426,0.25561 -0.24426,0.25561c-0.22018,0.00459 -0.75091,0.00445 -1.21385,-0.09243c-0.51337,0.39967 -1.04619,0.7288 -1.2136,0.81273c-0.09651,0.0412 -0.19303,0.08242 -0.28954,0.12363l0.0933,-0.03578c0,0 -0.09325,0.23197 -0.32521,0.13872z"/><path d="M235.55309,165.10923c0.23196,0.09324 0.13872,0.32521 0.13872,0.32521l-0.17444,0.23764c-0.09216,0.03928 -0.18433,0.07856 -0.2765,0.11784c-0.2598,0.127 -0.48847,0.40415 -0.70469,0.70186c0.04243,0.0534 0.0719,0.11324 0.0853,0.18027c0.10589,0.52999 -1.50852,1.61333 -1.86998,0.99526c-0.15156,-0.25916 0.09932,-0.63878 0.48574,-1.01775c-0.21683,-0.05212 -0.43225,-0.09828 -0.62169,-0.0936c0,0 -0.24994,0.00567 -0.25561,-0.24426c-0.00567,-0.24993 0.24426,-0.25561 0.24426,-0.25561c0.22018,-0.00459 0.75091,-0.00445 1.21385,0.09243c0.51337,-0.39967 1.04619,-0.7288 1.2136,-0.81273c0.09651,-0.0412 0.19303,-0.08242 0.28954,-0.12363l-0.0933,0.03578c0,0 0.09325,-0.23197 0.32521,-0.13872z"/></g><g data-paper-data="{&quot;index&quot;:null}" fill="#000000" stroke="none" stroke-width="0.5"><path d="M253.65439,172.65469l-0.04258,-0.0904c0.04115,0.09654 0.08229,0.19308 0.12343,0.28962c0.06275,0.17644 0.21955,0.78277 0.31349,1.42656c0.40121,0.25047 0.78439,0.61768 0.94013,0.77338c0,0 0.17648,0.17707 -0.0006,0.35355c-0.17708,0.17648 -0.35356,-0.0006 -0.35356,-0.0006c-0.1335,-0.13449 -0.32093,-0.25026 -0.51351,-0.36271c0.01664,0.54098 -0.06502,0.98862 -0.35378,1.07079c-0.68866,0.19596 -1.10416,-1.70333 -0.66093,-2.01259c0.05606,-0.03911 0.11874,-0.06191 0.18633,-0.07109c0.04997,-0.36452 0.07674,-0.72284 -0.02289,-0.99432c-0.03934,-0.09214 -0.07868,-0.18428 -0.11802,-0.27641l0.03856,-0.29227c0,0 0.09325,-0.23196 0.32521,-0.13872c0.23196,0.09324 0.13872,0.3252 0.13872,0.3252z"/><path d="M226.34561,187.34532l0.04258,0.0904c-0.04115,-0.09654 -0.08229,-0.19308 -0.12343,-0.28962c-0.06275,-0.17644 -0.21955,-0.78277 -0.31349,-1.42656c-0.40121,-0.25047 -0.78439,-0.61768 -0.94013,-0.77338c0,0 -0.17648,-0.17707 0.0006,-0.35355c0.17708,-0.17648 0.35356,0.0006 0.35356,0.0006c0.1335,0.13449 0.32093,0.25026 0.51351,0.36271c-0.01664,-0.54098 0.06502,-0.98862 0.35378,-1.07079c0.68866,-0.19596 1.10416,1.70333 0.66093,2.01259c-0.05606,0.03911 -0.11874,0.06191 -0.18633,0.07109c-0.04997,0.36452 -0.07674,0.72284 0.02289,0.99432c0.03934,0.09214 0.07868,0.18428 0.11802,0.27641l-0.03856,0.29227c0,0 -0.09325,0.23196 -0.32521,0.13872c-0.23196,-0.09324 -0.13872,-0.3252 -0.13872,-0.3252z"/></g><g data-paper-data="{&quot;index&quot;:null}" fill="#000000" stroke="none" stroke-width="0.5"><path d="M253.67381,187.38492c-0.22995,0.09809 -0.32804,-0.13186 -0.32804,-0.13186l-0.04469,-0.29139c0.0374,-0.09294 0.07479,-0.18589 0.11219,-0.27883c0.09391,-0.27352 0.05962,-0.63118 0.002,-0.99458c-0.06777,-0.00776 -0.13092,-0.02923 -0.18778,-0.06716c-0.44963,-0.29988 -0.07411,-2.20748 0.61852,-2.02603c0.29042,0.07609 0.38146,0.52191 0.37619,1.06312c0.19018,-0.11647 0.37514,-0.23615 0.50578,-0.37341c0,0 0.17272,-0.18075 0.35346,-0.00802c0.18075,0.17273 0.00802,0.35346 0.00802,0.35346c-0.15244,0.15894 -0.52782,0.53412 -0.92367,0.79296c-0.0804,0.64562 -0.22443,1.25512 -0.28347,1.43283c-0.03911,0.09739 -0.07822,0.19476 -0.11732,0.29215l0.04067,-0.09127c0,0 0.09808,0.22995 -0.13187,0.32805z"/><path d="M226.3262,172.61508c0.22995,-0.09809 0.32804,0.13186 0.32804,0.13186l0.04469,0.29139c-0.0374,0.09294 -0.07479,0.18589 -0.11219,0.27883c-0.09391,0.27352 -0.05962,0.63118 -0.002,0.99458c0.06777,0.00776 0.13092,0.02923 0.18778,0.06716c0.44963,0.29988 0.07411,2.20748 -0.61852,2.02603c-0.29042,-0.07609 -0.38146,-0.52191 -0.37619,-1.06312c-0.19018,0.11647 -0.37514,0.23615 -0.50578,0.37341c0,0 -0.17272,0.18075 -0.35346,0.00802c-0.18075,-0.17273 -0.00802,-0.35346 -0.00802,-0.35346c0.15244,-0.15894 0.52782,-0.53412 0.92367,-0.79296c0.0804,-0.64562 0.22443,-1.25512 0.28347,-1.43283c0.03911,-0.09739 0.07822,-0.19476 0.11732,-0.29215l-0.04067,0.09127c0,0 -0.09808,-0.22995 0.13187,-0.32805z"/></g><g data-paper-data="{&quot;index&quot;:null}" fill="#000000" stroke="none" stroke-width="0.5"><path d="M244.4612,165.15097l-0.09403,-0.03381c0.09735,0.03917 0.19472,0.07834 0.29207,0.11751c0.16913,0.08039 0.70875,0.39826 1.23041,0.78706c0.4608,-0.10658 0.9914,-0.11788 1.21163,-0.11791c0,0 0.25,0.00042 0.24958,0.25042c-0.00042,0.25 -0.25042,0.24958 -0.25042,0.24958c-0.18949,-0.0007 -0.4039,0.04997 -0.61959,0.10664c0.39429,0.37077 0.65308,0.74504 0.507,1.00732c-0.34839,0.62552 -1.9852,-0.42368 -1.89047,-0.95577c0.01198,-0.0673 0.04019,-0.12774 0.08149,-0.18202c-0.22242,-0.2931 -0.45686,-0.56538 -0.71928,-0.6869c-0.09297,-0.03733 -0.18594,-0.07468 -0.27891,-0.11201l-0.17939,-0.23393c0,0 -0.09809,-0.22995 0.13186,-0.32804c0.22995,-0.09809 0.32805,0.13186 0.32805,0.13186z"/><path d="M235.53881,194.84904l0.09403,0.03381c-0.09735,-0.03917 -0.19472,-0.07834 -0.29207,-0.11751c-0.16913,-0.08039 -0.70875,-0.39826 -1.23041,-0.78706c-0.4608,0.10658 -0.9914,0.11788 -1.21163,0.11791c0,0 -0.25,-0.00042 -0.24958,-0.25042c0.00042,-0.25 0.25042,-0.24958 0.25042,-0.24958c0.18949,0.0007 0.4039,-0.04997 0.61959,-0.10664c-0.39429,-0.37077 -0.65308,-0.74504 -0.507,-1.00732c0.34839,-0.62552 1.9852,0.42368 1.89047,0.95577c-0.01198,0.0673 -0.04019,0.12774 -0.08149,0.18202c0.22242,0.2931 0.45686,0.56538 0.71928,0.6869c0.09297,0.03733 0.18594,0.07468 0.27891,0.11201l0.17939,0.23393c0,0 0.09809,0.22995 -0.13186,0.32804c-0.22995,0.09809 -0.32805,-0.13186 -0.32805,-0.13186z"/></g><g fill="none" stroke="#000000" stroke-width="0.5"><g><path d="M239.74238,176.44534c5.38303,0.11336 9.71191,4.5125 9.71191,9.92271c0,0.12955 -0.00248,0.25851 -0.0074,0.38685"/><path d="M240.25762,183.55466c-5.38303,-0.11336 -9.71191,-4.5125 -9.71191,-9.92271c0,-0.12955 0.00248,-0.25851 0.0074,-0.38685"/></g><g><path d="M236.44534,180.25762c0.11336,-5.38303 4.5125,-9.71191 9.92271,-9.71191c0.12955,0 0.25851,0.00248 0.38685,0.0074"/><path d="M243.55466,179.74238c-0.11336,5.38303 -4.5125,9.71191 -9.92271,9.71191c-0.12955,0 -0.25851,-0.00248 -0.38685,-0.0074"/></g></g><g fill="none" stroke="#000000" stroke-width="0.5"><g><path d="M237.21368,177.77775c3.73518,-3.87792 9.90392,-4.07386 13.87871,-0.40352c0.09518,0.08789 0.18824,0.1772 0.27919,0.26788"/><path d="M242.78632,182.22225c-3.73518,3.87792 -9.90392,4.07386 -13.87871,0.40352c-0.09518,-0.08789 -0.18824,-0.1772 -0.27919,-0.26788"/></g><g><path d="M237.77775,182.78632c-3.87792,-3.73518 -4.07386,-9.90392 -0.40352,-13.87871c0.08789,-0.09518 0.1772,-0.18824 0.26788,-0.27919"/><path d="M242.22225,177.21368c3.87792,3.73518 4.07386,9.90392 0.40352,13.87871c-0.08789,0.09518 -0.1772,0.18824 -0.26788,0.27919"/></g></g></g></g></g></svg>