<svg version="1.1" xmlns="http://www.w3.org/2000/svg" xmlns:xlink="http://www.w3.org/1999/xlink" width="18.4" height="18.4" viewBox="0,0,18.4,18.4"><defs><radialGradient cx="240" cy="180" r="7.52514" gradientUnits="userSpaceOnUse" id="color-1"><stop offset="0" stop-color="#ae52ff"/><stop offset="1" stop-color="#ae52ff" stop-opacity="0"/></radialGradient><radialGradient cx="240" cy="180" r="7.76" gradientUnits="userSpaceOnUse" id="color-2"><stop offset="0" stop-color="#edd9ff"/><stop offset="1" stop-color="#edd9ff" stop-opacity="0"/></radialGradient><radialGradient cx="240" cy="180" r="7.76" gradientUnits="userSpaceOnUse" id="color-3"><stop offset="0" stop-color="#edd9ff"/><stop offset="1" stop-color="#edd9ff" stop-opacity="0"/></radialGradient></defs><g transform="translate(-230.8,-170.8)"><g data-paper-data="{&quot;isPaintingLayer&quot;:true}" fill-rule="nonzero" stroke="none" stroke-width="0" stroke-linecap="butt" stroke-linejoin="miter" stroke-miterlimit="10" stroke-dasharray="" stroke-dashoffset="0" style="mix-blend-mode: normal"><path d="M232.47486,180c0,-4.15602 3.36912,-7.52514 7.52514,-7.52514c4.15602,0 7.52514,3.36912 7.52514,7.52514c0,4.15602 -3.36912,7.52514 -7.52514,7.52514c-4.15602,0 -7.52514,-3.36912 -7.52514,-7.52514z" fill="url(#color-1)"/><path d="M241.5769,180c0,5.08102 -1.5769,9.2 -1.5769,9.2c0,0 -1.5769,-4.11898 -1.5769,-9.2c0,-5.08102 1.5769,-9.2 1.5769,-9.2c0,0 1.5769,4.11898 1.5769,9.2z" fill="url(#color-2)"/><path d="M240,178.4231c5.08102,0 9.2,1.5769 9.2,1.5769c0,0 -4.11898,1.5769 -9.2,1.5769c-5.08102,0 -9.2,-1.5769 -9.2,-1.5769c0,0 4.11898,-1.5769 9.2,-1.5769z" fill="url(#color-3)"/></g></g></svg>