<svg version="1.1" xmlns="http://www.w3.org/2000/svg" xmlns:xlink="http://www.w3.org/1999/xlink" width="48.5" height="48.5" viewBox="0,0,48.5,48.5"><defs><radialGradient cx="243.92311" cy="172.14614" r="3.69967" gradientUnits="userSpaceOnUse" id="color-1"><stop offset="0" stop-color="#a64cff"/><stop offset="1" stop-color="#a64cff" stop-opacity="0"/></radialGradient><radialGradient cx="243.92311" cy="172.14614" r="4.27704" gradientUnits="userSpaceOnUse" id="color-2"><stop offset="0" stop-color="#c58cff"/><stop offset="1" stop-color="#a64cff"/></radialGradient><radialGradient cx="244.01164" cy="187.85386" r="3.69966" gradientUnits="userSpaceOnUse" id="color-3"><stop offset="0" stop-color="#a64cff"/><stop offset="1" stop-color="#a64cff" stop-opacity="0"/></radialGradient><radialGradient cx="244.01164" cy="187.85386" r="4.27704" gradientUnits="userSpaceOnUse" id="color-4"><stop offset="0" stop-color="#c58cff"/><stop offset="1" stop-color="#a64cff"/></radialGradient></defs><g transform="translate(-215.75,-155.75)"><g data-paper-data="{&quot;isPaintingLayer&quot;:true}" fill-rule="nonzero" stroke-linecap="butt" stroke-linejoin="miter" stroke-miterlimit="10" stroke-dasharray="" stroke-dashoffset="0" style="mix-blend-mode: normal"><path d="M237.604,175.03211c0.2802,-1.44123 0.1231,-2.17737 1.66606,-2.52053c1.05367,-0.09887 4.00501,-1.2504 5.72914,-0.72617c1.73503,0.52753 2.71801,1.70991 3.51438,2.95375c1.41645,2.21236 1.38659,4.53642 1.25683,5.71477c-0.1053,0.95623 0.09974,2.2678 -1.28878,4.646c-0.56847,1.79713 -2.24063,2.63649 -3.40259,2.95512c-1.84117,0.50488 -4.05651,-0.26354 -5.47718,-0.43186c-1.19936,-0.41758 -1.71601,-1.3186 -1.99785,-2.47709c-0.28184,-1.15848 -0.94554,-5.25057 -0.00001,-10.11399z" fill="#160067" stroke="none" stroke-width="0"/><path d="M234.62245,184.88108c0,0 -0.42445,0.1443 -1.01029,-0.28394c-0.40007,0.05718 -0.86812,-0.46604 -1.52275,-0.76919c-0.65877,-0.30507 -1.21112,-0.28942 -1.51349,-1.00872c-0.53781,-1.27939 -0.40071,-2.36865 -0.35144,-3.05009c0.03998,-0.55298 -0.15878,-1.7602 0.36842,-3.13548c0.50385,-0.60059 0.98388,-0.83937 1.42505,-1.02364c0.69906,-0.29197 1.05531,-0.80676 1.59471,-0.70941c0.41424,-0.38519 1.00978,-0.2257 1.00978,-0.2257c0,0 -0.44417,3.35525 -0.44417,4.97201c0,1.77119 0.44417,5.23416 0.44417,5.23416z" fill="#160067" stroke="none" stroke-width="0"/><path d="M239.04211,174.43746l-3.86083,-0.09184l3.26968,-1.47966z" fill="#160067" stroke="none" stroke-width="0"/><path d="M238.24462,186.66291l-2.90973,-1.47967l3.43579,-0.09184z" data-paper-data="{&quot;index&quot;:null}" fill="#160067" stroke="none" stroke-width="0"/><path d="M238.56916,175.78176l-2.57642,-0.57662l2.44474,-0.88626z" fill="#160067" stroke="none" stroke-width="0"/><path d="M239.17498,176.70889l-2.50633,-0.82987l2.52072,-0.63886z" fill="#160067" stroke="none" stroke-width="0"/><path d="M238.85043,177.51159l-2.50633,-0.82987l2.52072,-0.63886z" fill="#160067" stroke="none" stroke-width="0"/><path d="M238.84467,185.38046l-2.50633,-0.82987l2.52073,-0.63886z" fill="#160067" stroke="none" stroke-width="0"/><path d="M239.42331,184.80181l-2.50633,-0.82987l2.52073,-0.63886z" fill="#160067" stroke="none" stroke-width="0"/><path d="M238.99251,184.01064l-2.50633,-0.82987l2.52073,-0.63886z" fill="#160067" stroke="none" stroke-width="0"/><path d="M239.25239,178.22534l-2.50633,-0.82987l2.52073,-0.63886z" fill="#160067" stroke="none" stroke-width="0"/><path d="M239.45913,183.43776l-2.50633,-0.82987l2.52073,-0.63886z" fill="#160067" stroke="none" stroke-width="0"/><path d="M238.76269,182.75285l-2.50633,-0.82987l2.52073,-0.63886z" fill="#160067" stroke="none" stroke-width="0"/><path d="M238.81005,178.8802l-2.50633,-0.82987l2.52073,-0.63886z" fill="#160067" stroke="none" stroke-width="0"/><path d="M238.32611,179.62977l-2.50633,-0.82987l2.52073,-0.63886z" fill="#160067" stroke="none" stroke-width="0"/><path d="M238.32035,181.97323l-2.50633,-0.82987l2.52073,-0.63886z" fill="#160067" stroke="none" stroke-width="0"/><path d="M233.9582,183.81679l2.81891,0.06706l-2.38728,1.08035z" fill="#160067" stroke="none" stroke-width="0"/><path d="M234.54046,174.73124l2.12448,1.08035l-2.50859,0.06706z" data-paper-data="{&quot;index&quot;:null}" fill="#160067" stroke="none" stroke-width="0"/><path d="M234.30351,182.67589l1.88112,0.42101l-1.78498,0.64709z" fill="#160067" stroke="none" stroke-width="0"/><path d="M233.86118,181.99897l1.82995,0.60591l-1.84046,0.46645z" fill="#160067" stroke="none" stroke-width="0"/><path d="M234.10237,175.66759l1.82995,0.60591l-1.84046,0.46645z" fill="#160067" stroke="none" stroke-width="0"/><path d="M233.9944,176.66774l1.82995,0.60591l-1.84046,0.46645z" fill="#160067" stroke="none" stroke-width="0"/><path d="M234.1622,177.58609l1.82995,0.60591l-1.84046,0.46645z" fill="#160067" stroke="none" stroke-width="0"/><path d="M234.12762,181.31683l1.82995,0.60591l-1.84046,0.46645z" fill="#160067" stroke="none" stroke-width="0"/><path d="M233.68402,180.61015l1.82995,0.60591l-1.84046,0.46645z" fill="#160067" stroke="none" stroke-width="0"/><path d="M233.68824,178.15532l1.82995,0.60591l-1.84046,0.46645z" fill="#160067" stroke="none" stroke-width="0"/><path d="M239.24662,180.46253l-2.50633,-0.82987l2.52073,-0.63886z" fill="#160067" stroke="none" stroke-width="0"/><path d="M239.24085,180.99959l-2.50633,-0.82987l2.52073,-0.63886z" fill="#160067" stroke="none" stroke-width="0"/><path d="M232.42529,179.05271l2.52072,0.63886l-2.50633,0.82987z" data-paper-data="{&quot;index&quot;:null}" fill="#160067" stroke="none" stroke-width="0"/><path d="M232.43106,179.58977l2.52073,0.63886l-2.50633,0.82987z" data-paper-data="{&quot;index&quot;:null}" fill="#160067" stroke="none" stroke-width="0"/><path d="M243.92311,168.44647c2.04327,0 3.69967,1.6564 3.69967,3.69967c0,2.04327 -1.6564,3.69967 -3.69967,3.69967c-2.04327,0 -3.69967,-1.6564 -3.69967,-3.69967c0,-2.04327 1.6564,-3.69967 3.69967,-3.69967z" fill="url(#color-1)" stroke="none" stroke-width="0"/><path d="M239.64608,172.14614c0,0 2.69396,-0.17551 3.40861,-0.89014c0.71102,-0.71102 0.86843,-3.3869 0.86843,-3.3869c0,0 0.12145,2.68332 0.82501,3.3869c0.72165,0.72165 3.45203,0.89014 3.45203,0.89014c0,0 -2.7345,0.04235 -3.43032,0.73817c-0.72837,0.72837 -0.84673,3.53887 -0.84673,3.53887c0,0 -0.06695,-2.84594 -0.78159,-3.56058c-0.71102,-0.71102 -3.49545,-0.71646 -3.49545,-0.71646z" fill="url(#color-2)" stroke="none" stroke-width="0"/><path d="M244.01164,184.1542c2.04327,0 3.69967,1.6564 3.69967,3.69967c0,2.04327 -1.6564,3.69966 -3.69967,3.69966c-2.04327,0 -3.69967,-1.65639 -3.69967,-3.69966c0,-2.04327 1.6564,-3.69967 3.69967,-3.69967z" fill="url(#color-3)" stroke="none" stroke-width="0"/><path d="M239.7346,187.85386c0,0 2.69396,-0.17551 3.40861,-0.89015c0.71102,-0.71102 0.86843,-3.3869 0.86843,-3.3869c0,0 0.12145,2.68332 0.82501,3.3869c0.72165,0.72165 3.45203,0.89015 3.45203,0.89015c0,0 -2.7345,0.04235 -3.43032,0.73817c-0.72837,0.72837 -0.84673,3.53887 -0.84673,3.53887c0,0 -0.06695,-2.84593 -0.78159,-3.56058c-0.71102,-0.71102 -3.49545,-0.71646 -3.49545,-0.71646z" fill="url(#color-4)" stroke="none" stroke-width="0"/><path d="M238.83697,186.83897c-0.10852,0.10852 -0.21703,0 -0.21703,0l0.02744,-0.00348c-0.68614,-0.17153 -1.31949,-0.49155 -1.99796,-0.66624c-0.76825,-0.51217 -1.80697,-1.06099 -2.5935,-1.45002c0,0 -0.13727,-0.06863 -0.06863,-0.20589c0.06863,-0.13727 0.20589,-0.06863 0.20589,-0.06863c0.79395,0.40206 1.80972,0.93007 2.5804,1.44386c0.66185,0.15999 1.28067,0.48228 1.94823,0.64916l0.11514,0.08422c0,0 0.10852,0.10852 0,0.21703z" fill="#160067" stroke="none" stroke-width="0.5"/><path d="M235.64354,174.10435c0.01194,-0.04543 0.04661,-0.11135 0.14719,-0.11135c0.15346,0 0.15346,0.15346 0.15346,0.15346l-0.06834,0.17153c-0.46945,0.31297 -0.90319,0.63733 -1.48822,0.63963c0,0 -0.15346,0 -0.15346,-0.15346c0,-0.15346 0.15346,-0.15346 0.15346,-0.15346c0.48783,0.00227 0.86582,-0.2822 1.25591,-0.54636z" fill="#160067" stroke="none" stroke-width="0.5"/><path d="M217,180c0,-12.70255 10.29745,-23 23,-23c12.70255,0 23,10.29745 23,23c0,12.70255 -10.29745,23 -23,23c-12.70255,0 -23,-10.29745 -23,-23z" fill="none" stroke="#9800ff" stroke-width="2.5"/></g></g></svg>