<svg version="1.1" xmlns="http://www.w3.org/2000/svg" xmlns:xlink="http://www.w3.org/1999/xlink" width="8.65478" height="44.68495" viewBox="0,0,8.65478,44.68495"><g transform="translate(-235.67261,-157.65753)"><g data-paper-data="{&quot;isPaintingLayer&quot;:true}" fill-rule="nonzero" stroke-linecap="butt" stroke-linejoin="miter" stroke-miterlimit="10" stroke-dasharray="" stroke-dashoffset="0" style="mix-blend-mode: normal"><g><path d="M236.17261,180c0,-12.06326 1.71358,-21.84247 3.82739,-21.84247c2.11381,0 3.82739,9.77921 3.82739,21.84247c0,12.06326 -1.71358,21.84247 -3.82739,21.84247c-2.11381,0 -3.82739,-9.77921 -3.82739,-21.84247z" fill="none" stroke="#000000" stroke-width="1"/><path d="M237.101,180c0,-9.13717 1.29793,-16.54429 2.899,-16.54429c1.60108,0 2.899,7.40712 2.899,16.54429c0,9.13717 -1.29793,16.54429 -2.899,16.54429c-1.60108,0 -2.899,-7.40712 -2.899,-16.54429z" fill="none" stroke="#000000" stroke-width="0.5"/><path d="M237.36374,180c0,-8.30903 1.18029,-15.04481 2.63626,-15.04481c1.45597,0 2.63626,6.73579 2.63626,15.04481c0,8.30903 -1.18029,15.04481 -2.63626,15.04481c-1.45597,0 -2.63626,-6.73579 -2.63626,-15.04481z" fill="none" stroke="#000000" stroke-width="0.5"/><path d="M238.22206,180c0,-5.60376 0.79601,-10.1465 1.77794,-10.1465c0.98193,0 1.77794,4.54274 1.77794,10.1465c0,5.60376 -0.79601,10.1465 -1.77794,10.1465c-0.98193,0 -1.77794,-4.54274 -1.77794,-10.1465z" fill="none" stroke="#000000" stroke-width="0.5"/><path d="M239.18548,180c0,-2.56724 0.36467,-4.64839 0.81452,-4.64839c0.44985,0 0.81452,2.08116 0.81452,4.64839c0,2.56724 -0.36467,4.64839 -0.81452,4.64839c-0.44985,0 -0.81452,-2.08116 -0.81452,-4.64839z" fill="none" stroke="#000000" stroke-width="0.5"/><path d="M239.34313,180c0,-2.07036 0.29409,-3.7487 0.65687,-3.7487c0.36278,0 0.65687,1.67835 0.65687,3.7487c0,2.07036 -0.29409,3.7487 -0.65687,3.7487c-0.36278,0 -0.65687,-1.67835 -0.65687,-3.7487z" fill="none" stroke="#000000" stroke-width="0.5"/><g fill="#000000" stroke="none" stroke-width="0.5"><path d="M240.39903,159.93299c0.04025,0.22972 0,0.45947 0,0.45947l-0.05777,0.19513c-0.02281,-0.00004 -0.04563,-0.00009 -0.06844,-0.00013c-0.06576,0.01934 -0.13842,0.23402 -0.21031,0.47964c0.00412,0.08547 0.00494,0.17202 0.00176,0.25897c-0.02517,0.6875 -0.46012,1.15929 -0.4806,0.23618c-0.00859,-0.38706 0.07788,-0.71292 0.19267,-0.96888c-0.04076,-0.17287 -0.08176,-0.33788 -0.12185,-0.42888c0,0 -0.05286,-0.12066 -0.03171,-0.42232c0.02114,-0.30165 0.074,-0.18099 0.074,-0.18099c0.04653,0.10678 0.15768,0.37757 0.24599,0.72943c0.14324,-0.21597 0.28425,-0.33771 0.32681,-0.35267c0.0239,-0.00004 0.04779,-0.00009 0.07169,-0.00013l-0.02274,-0.00481c0,0 0.04026,-0.22972 0.08051,0z"/><path d="M239.60097,200.06702c-0.04025,-0.22972 0,-0.45947 0,-0.45947l0.05777,-0.19513c0.02281,0.00004 0.04563,0.00009 0.06844,0.00013c0.06576,-0.01934 0.13842,-0.23402 0.21031,-0.47964c-0.00412,-0.08547 -0.00494,-0.17202 -0.00176,-0.25897c0.02517,-0.6875 0.46012,-1.15929 0.4806,-0.23618c0.00859,0.38706 -0.07788,0.71292 -0.19267,0.96888c0.04076,0.17287 0.08176,0.33788 0.12185,0.42888c0,0 0.05286,0.12066 0.03171,0.42232c-0.02114,0.30165 -0.074,0.18099 -0.074,0.18099c-0.04653,-0.10678 -0.15768,-0.37757 -0.24599,-0.72943c-0.14324,0.21597 -0.28425,0.33771 -0.32681,0.35267c-0.0239,0.00004 -0.04779,0.00009 -0.07169,0.00013l0.02274,0.00481c0,0 -0.04026,0.22972 -0.08051,0z"/></g><g data-paper-data="{&quot;index&quot;:null}" fill="#000000" stroke="none" stroke-width="0.5"><path d="M236.48372,181.81777l0.00084,0.12976c0.00001,-0.13638 0.00002,-0.27275 0.00002,-0.40913c0.00262,-0.2429 0.02395,-1.04763 0.0618,-1.86508c-0.06166,-0.50397 -0.10911,-1.13829 -0.12782,-1.40383c0,0 -0.02114,-0.30164 0.03171,-0.4223c0.05286,-0.12066 0.074,0.18099 0.074,0.18099c0.01594,0.22883 0.04486,0.4628 0.07515,0.6954c0.04485,-0.65513 0.10195,-1.14858 0.16977,-1.09956c0.16175,0.11691 0.07908,2.59908 -0.04139,2.74274c-0.01524,0.01817 -0.0304,0.01345 -0.04538,-0.01005c-0.04304,0.41026 -0.08066,0.82492 -0.08405,1.20023c0.00001,0.1302 0.00002,0.26039 0.00002,0.39058l-0.03419,0.3297c0,0 -0.04026,0.22972 -0.08051,0c-0.04025,-0.22972 0,-0.45947 0,-0.45947z"/><path d="M243.51628,178.18224l-0.00084,-0.12976c-0.00001,0.13638 -0.00002,0.27275 -0.00002,0.40913c-0.00262,0.2429 -0.02395,1.04763 -0.0618,1.86508c0.06166,0.50397 0.10911,1.13829 0.12782,1.40383c0,0 0.02114,0.30164 -0.03171,0.4223c-0.05286,0.12066 -0.074,-0.18099 -0.074,-0.18099c-0.01594,-0.22883 -0.04486,-0.4628 -0.07515,-0.6954c-0.04485,0.65513 -0.10195,1.14858 -0.16977,1.09956c-0.16175,-0.11691 -0.07908,-2.59908 0.04139,-2.74274c0.01524,-0.01817 0.0304,-0.01345 0.04538,0.01005c0.04304,-0.41026 0.08066,-0.82492 0.08405,-1.20023c-0.00001,-0.1302 -0.00002,-0.26039 -0.00002,-0.39058l0.03419,-0.3297c0,0 0.04026,-0.22972 0.08051,0c0.04025,0.22972 0,0.45947 0,0.45947z"/></g><g fill="#000000" stroke="none" stroke-width="0.5"><path d="M237.79577,164.20024c0.05693,0 0.05693,0.32489 0.05693,0.32489l-0.01668,0.3711c-0.01614,0.09203 -0.03227,0.18407 -0.04841,0.2761c-0.04411,0.27905 -0.06888,0.72408 -0.08928,1.18784c0.0135,0.04383 0.02481,0.10169 0.03333,0.17602c0.06738,0.58772 -0.18171,2.67648 -0.31057,2.10642c-0.05403,-0.23903 -0.03327,-0.81837 0.01619,-1.46261c-0.05024,0.04224 -0.09968,0.09101 -0.1393,0.18846c0,0 -0.05232,0.12798 -0.07475,-0.17064c-0.02243,-0.29862 0.0299,-0.42659 0.0299,-0.42659c0.04613,-0.11226 0.15828,-0.36932 0.26432,-0.47687c0.07452,-0.73074 0.15915,-1.38586 0.18739,-1.56818c0.01689,-0.09647 0.03378,-0.19292 0.05068,-0.28938l-0.01668,0.08836c0,0 0,-0.32489 0.05693,-0.32489z"/><path d="M242.20423,195.79978c-0.05693,0 -0.05693,-0.32489 -0.05693,-0.32489l0.01668,-0.3711c0.01614,-0.09203 0.03227,-0.18407 0.04841,-0.2761c0.04411,-0.27905 0.06888,-0.72408 0.08928,-1.18784c-0.0135,-0.04383 -0.02481,-0.10169 -0.03333,-0.17602c-0.06738,-0.58772 0.18171,-2.67648 0.31057,-2.10642c0.05403,0.23903 0.03327,0.81837 -0.01619,1.46261c0.05024,-0.04224 0.09968,-0.09101 0.1393,-0.18846c0,0 0.05232,-0.12798 0.07475,0.17064c0.02243,0.29862 -0.0299,0.42659 -0.0299,0.42659c-0.04613,0.11226 -0.15828,0.36932 -0.26432,0.47687c-0.07452,0.73074 -0.15915,1.38586 -0.18739,1.56818c-0.01689,0.09647 -0.03378,0.19292 -0.05068,0.28938l0.01668,-0.08836c0,0 0,0.32489 -0.05693,0.32489z"/></g><g data-paper-data="{&quot;index&quot;:null}" fill="#000000" stroke="none" stroke-width="0.5"><path d="M237.73884,195.47489l0.01668,0.08836c-0.01689,-0.09647 -0.03378,-0.19292 -0.05068,-0.28938c-0.02824,-0.18234 -0.11287,-0.83744 -0.18739,-1.56818c-0.10604,-0.10755 -0.21819,-0.36462 -0.26432,-0.47687c0,0 -0.05232,-0.12797 -0.0299,-0.42659c0.02243,-0.29862 0.07475,-0.17064 0.07475,-0.17064c0.03963,0.09747 0.08906,0.14623 0.1393,0.18846c-0.04946,-0.64424 -0.07022,-1.22358 -0.01619,-1.46261c0.12886,-0.57006 0.37796,1.5187 0.31057,2.10642c-0.00852,0.07433 -0.01983,0.13219 -0.03333,0.17602c0.0204,0.46376 0.04518,0.90879 0.08928,1.18784c0.01614,0.09203 0.03227,0.18407 0.04841,0.2761l0.01668,0.3711c0,0 0,0.32489 -0.05693,0.32489c-0.05693,0 -0.05693,-0.32489 -0.05693,-0.32489z"/><path d="M242.26116,164.52513l-0.01668,-0.08836c0.01689,0.09647 0.03378,0.19292 0.05068,0.28938c0.02824,0.18234 0.11287,0.83744 0.18739,1.56818c0.10604,0.10755 0.21819,0.36462 0.26432,0.47687c0,0 0.05232,0.12797 0.0299,0.42659c-0.02243,0.29862 -0.07475,0.17064 -0.07475,0.17064c-0.03963,-0.09747 -0.08906,-0.14623 -0.1393,-0.18846c0.04946,0.64424 0.07022,1.22358 0.01619,1.46261c-0.12886,0.57006 -0.37796,-1.5187 -0.31057,-2.10642c0.00852,-0.07433 0.01983,-0.13219 0.03333,-0.17602c-0.0204,-0.46376 -0.04518,-0.90879 -0.08928,-1.18784c-0.01614,-0.09203 -0.03227,-0.18407 -0.04841,-0.2761l-0.01668,-0.3711c0,0 0,-0.32489 0.05693,-0.32489c0.05693,0 0.05693,0.32489 0.05693,0.32489z"/></g><g data-paper-data="{&quot;index&quot;:null}" fill="#000000" stroke="none" stroke-width="0.5"><path d="M241.01264,199.35134c-0.05282,-0.12117 -0.03159,-0.42263 -0.03159,-0.42263l0.03972,-0.30883c0.02099,-0.05105 0.04197,-0.10209 0.06296,-0.15314c0.05916,-0.16504 0.11123,-0.52521 0.16047,-0.9121c-0.00966,-0.0694 -0.01637,-0.14716 -0.01942,-0.23427c-0.02411,-0.68875 0.34351,-2.09661 0.42583,-1.29339c0.03451,0.33679 -0.02262,0.83013 -0.11061,1.32262c0.04938,0.06773 0.09843,0.12772 0.14157,0.12164c0,0 0.05692,-0.00737 0.05821,0.31743c0.00129,0.3248 -0.05562,0.33218 -0.05562,0.33218c-0.05014,0.00596 -0.17099,0.00578 -0.27641,-0.12012c-0.1169,0.51939 -0.23823,0.94711 -0.27636,1.05619c-0.02198,0.05354 -0.04396,0.10711 -0.06593,0.16066l0.02125,-0.0465c0,0 -0.02123,0.30146 -0.07406,0.18027z"/><path d="M238.98736,160.64866c0.05282,0.12117 0.03159,0.42263 0.03159,0.42263l-0.03972,0.30883c-0.02099,0.05105 -0.04197,0.10209 -0.06296,0.15314c-0.05916,0.16504 -0.11123,0.52521 -0.16047,0.9121c0.00966,0.0694 0.01637,0.14716 0.01942,0.23427c0.02411,0.68875 -0.34351,2.09661 -0.42583,1.29339c-0.03451,-0.33679 0.02262,-0.83013 0.11061,-1.32262c-0.04938,-0.06773 -0.09843,-0.12772 -0.14157,-0.12164c0,0 -0.05692,0.00737 -0.05821,-0.31743c-0.00129,-0.3248 0.05562,-0.33218 0.05562,-0.33218c0.05014,-0.00596 0.17099,-0.00578 0.27641,0.12012c0.1169,-0.51939 0.23823,-0.94711 0.27636,-1.05619c0.02198,-0.05354 0.04396,-0.10711 0.06593,-0.16066l-0.02125,0.0465c0,0 0.02123,-0.30146 0.07406,-0.18027z"/></g><g data-paper-data="{&quot;index&quot;:null}" fill="#000000" stroke="none" stroke-width="0.5"><path d="M243.10933,170.45439l-0.0097,-0.11748c0.00937,0.12546 0.01874,0.25092 0.02811,0.37638c0.01429,0.22929 0.05,1.01725 0.07139,1.85389c0.09136,0.3255 0.17862,0.80271 0.21408,1.00505c0,0 0.04019,0.23011 -0.00014,0.45946c-0.04032,0.22935 -0.08051,-0.00078 -0.08051,-0.00078c-0.0304,-0.17478 -0.07308,-0.32523 -0.11693,-0.47136c0.00379,0.70303 -0.01481,1.28476 -0.08056,1.39155c-0.15682,0.25466 -0.25144,-2.21357 -0.1505,-2.61547c0.01277,-0.05083 0.02704,-0.08046 0.04243,-0.09239c0.01138,-0.47371 0.01747,-0.93937 -0.00521,-1.29217c-0.00896,-0.11974 -0.01792,-0.23948 -0.02688,-0.35921l0.00878,-0.37982c0,0 0.02123,-0.30144 0.07406,-0.18027c0.05282,0.12117 0.03159,0.42261 0.03159,0.42261z"/><path d="M236.89067,189.54563l0.0097,0.11748c-0.00937,-0.12546 -0.01874,-0.25092 -0.02811,-0.37638c-0.01429,-0.22929 -0.05,-1.01725 -0.07139,-1.85389c-0.09136,-0.3255 -0.17862,-0.80271 -0.21408,-1.00505c0,0 -0.04019,-0.23011 0.00014,-0.45946c0.04032,-0.22935 0.08051,0.00078 0.08051,0.00078c0.0304,0.17478 0.07308,0.32523 0.11693,0.47136c-0.00379,-0.70303 0.01481,-1.28476 0.08056,-1.39155c0.15682,-0.25466 0.25144,2.21357 0.1505,2.61547c-0.01277,0.05083 -0.02704,0.08046 -0.04243,0.09239c-0.01138,0.47371 -0.01747,0.93937 0.00521,1.29217c0.00896,0.11974 0.01792,0.23948 0.02688,0.35921l-0.00878,0.37982c0,0 -0.02123,0.30144 -0.07406,0.18027c-0.05282,-0.12117 -0.03159,-0.42261 -0.03159,-0.42261z"/></g><g data-paper-data="{&quot;index&quot;:null}" fill="#000000" stroke="none" stroke-width="0.5"><path d="M243.11375,189.59709c-0.05236,0.12747 -0.0747,-0.17136 -0.0747,-0.17136l-0.01018,-0.37868c0.00852,-0.12078 0.01703,-0.24157 0.02555,-0.36235c0.02138,-0.35545 0.01358,-0.82025 0.00046,-1.29251c-0.01543,-0.01008 -0.02981,-0.03799 -0.04276,-0.08728c-0.10239,-0.38971 -0.01688,-2.86874 0.14085,-2.63293c0.06613,0.09888 0.08686,0.67825 0.08566,1.38158c0.04331,-0.15136 0.08543,-0.30689 0.11517,-0.48527c0,0 0.03933,-0.23489 0.08049,-0.01042c0.04116,0.22447 0.00183,0.45934 0.00183,0.45934c-0.03471,0.20655 -0.12019,0.69412 -0.21033,1.03049c-0.01831,0.83902 -0.05111,1.63109 -0.06455,1.86204c-0.00891,0.12656 -0.01781,0.2531 -0.02672,0.37966l0.00926,-0.11861c0,0 0.02233,0.29883 -0.03003,0.42632z"/><path d="M236.88625,170.40291c0.05236,-0.12747 0.0747,0.17136 0.0747,0.17136l0.01018,0.37868c-0.00852,0.12078 -0.01703,0.24157 -0.02555,0.36235c-0.02138,0.35545 -0.01358,0.82025 -0.00046,1.29251c0.01543,0.01008 0.02981,0.03799 0.04276,0.08728c0.10239,0.38971 0.01688,2.86874 -0.14085,2.63293c-0.06613,-0.09888 -0.08686,-0.67825 -0.08566,-1.38158c-0.04331,0.15136 -0.08543,0.30689 -0.11517,0.48527c0,0 -0.03933,0.23489 -0.08049,0.01042c-0.04116,-0.22447 -0.00183,-0.45934 -0.00183,-0.45934c0.03471,-0.20655 0.12019,-0.69412 0.21033,-1.03049c0.01831,-0.83902 0.05111,-1.63109 0.06455,-1.86204c0.00891,-0.12656 0.01781,-0.2531 0.02672,-0.37966l-0.00926,0.11861c0,0 -0.02233,-0.29883 0.03003,-0.42632z"/></g><g data-paper-data="{&quot;index&quot;:null}" fill="#000000" stroke="none" stroke-width="0.5"><path d="M241.01589,160.70291l-0.02141,-0.04394c0.02217,0.0509 0.04434,0.10181 0.06651,0.15271c0.03851,0.10447 0.16139,0.51756 0.28018,1.02283c0.10493,-0.13851 0.22576,-0.15319 0.27591,-0.15323c0,0 0.05693,0.00055 0.05683,0.32543c-0.0001,0.32489 -0.05702,0.32434 -0.05702,0.32434c-0.04315,-0.00091 -0.09197,0.06494 -0.14109,0.13858c0.08979,0.48184 0.14872,0.96822 0.11545,1.30907c-0.07933,0.8129 -0.45206,-0.55059 -0.43049,-1.24207c0.00273,-0.08746 0.00915,-0.166 0.01856,-0.23654c-0.05065,-0.3809 -0.10403,-0.73474 -0.16379,-0.89266c-0.02117,-0.04851 -0.04234,-0.09705 -0.06351,-0.14556l-0.04085,-0.304c0,0 -0.02234,-0.29883 0.03003,-0.42631c0.05236,-0.12747 0.0747,0.17136 0.0747,0.17136z"/><path d="M238.98411,199.2971l0.02141,0.04394c-0.02217,-0.0509 -0.04434,-0.10181 -0.06651,-0.15271c-0.03851,-0.10447 -0.16139,-0.51756 -0.28018,-1.02283c-0.10493,0.13851 -0.22576,0.15319 -0.27591,0.15323c0,0 -0.05693,-0.00055 -0.05683,-0.32543c0.0001,-0.32489 0.05702,-0.32434 0.05702,-0.32434c0.04315,0.00091 0.09197,-0.06494 0.14109,-0.13858c-0.08979,-0.48184 -0.14872,-0.96822 -0.11545,-1.30907c0.07933,-0.8129 0.45206,0.55059 0.43049,1.24207c-0.00273,0.08746 -0.00915,0.166 -0.01856,0.23654c0.05065,0.3809 0.10403,0.73474 0.16379,0.89266c0.02117,0.04851 0.04234,0.09705 0.06351,0.14556l0.04085,0.304c0,0 0.02234,0.29883 -0.03003,0.42631c-0.05236,0.12747 -0.0747,-0.17136 -0.0747,-0.17136z"/></g><g fill="none" stroke="#000000" stroke-width="0.5"><g><path d="M239.94134,175.38053c1.22581,0.14732 2.21156,5.86423 2.21156,12.89508c0,0.16836 -0.00056,0.33595 -0.00169,0.50273"/><path d="M240.05866,184.61947c-1.22581,-0.14732 -2.21156,-5.86423 -2.21156,-12.89508c0,-0.16836 0.00056,-0.33595 0.00169,-0.50273"/></g><g><path d="M239.19055,180.33479c0.02581,-6.99553 1.02757,-12.62114 2.25957,-12.62114c0.0295,0 0.05887,0.00322 0.08809,0.00962"/><path d="M240.80945,179.66521c-0.02581,6.99553 -1.02757,12.62114 -2.25957,12.62114c-0.0295,0 -0.05887,-0.00322 -0.08809,-0.00962"/></g></g><g fill="none" stroke="#000000" stroke-width="0.5"><g><path d="M239.36551,177.11208c0.85056,-5.03956 2.25529,-5.29419 3.16041,-0.5244c0.02167,0.11422 0.04287,0.23028 0.06358,0.34812"/><path d="M240.63449,182.88792c-0.85056,5.03956 -2.25529,5.29419 -3.16041,0.5244c-0.02167,-0.11422 -0.04287,-0.23028 -0.06358,-0.34812"/></g><g><path d="M239.49396,183.62097c-0.88307,-4.85407 -0.92769,-12.87066 -0.09189,-18.0361c0.02001,-0.12369 0.04035,-0.24463 0.061,-0.36283"/><path d="M240.50604,176.37903c0.88307,4.85407 0.92769,12.87066 0.09189,18.0361c-0.02001,0.12369 -0.04035,0.24463 -0.061,0.36283"/></g></g></g></g></g></svg>