<svg version="1.1" xmlns="http://www.w3.org/2000/svg" xmlns:xlink="http://www.w3.org/1999/xlink" width="6.27382" height="6.27382" viewBox="0,0,6.27382,6.27382"><defs><radialGradient cx="240" cy="180" r="3.13691" gradientUnits="userSpaceOnUse" id="color-1"><stop offset="0" stop-color="#7700ff"/><stop offset="1" stop-color="#7700ff" stop-opacity="0"/></radialGradient><radialGradient cx="239.99999" cy="179.92307" r="1.68758" gradientUnits="userSpaceOnUse" id="color-2"><stop offset="0" stop-color="#e4ccff"/><stop offset="1" stop-color="#e4ccff" stop-opacity="0"/></radialGradient><radialGradient cx="240" cy="179.92307" r="3.13691" gradientUnits="userSpaceOnUse" id="color-3"><stop offset="0" stop-color="#7700ff"/><stop offset="1" stop-color="#7700ff" stop-opacity="0"/></radialGradient><radialGradient cx="239.99999" cy="179.92307" r="1.5486" gradientUnits="userSpaceOnUse" id="color-4"><stop offset="0" stop-color="#ba7eff"/><stop offset="1" stop-color="#ba7eff" stop-opacity="0"/></radialGradient><radialGradient cx="239.99999" cy="179.92307" r="1.98538" gradientUnits="userSpaceOnUse" id="color-5"><stop offset="0" stop-color="#cb9dff"/><stop offset="1" stop-color="#cb9dff" stop-opacity="0"/></radialGradient><radialGradient cx="240" cy="180" r="1.68758" gradientUnits="userSpaceOnUse" id="color-6"><stop offset="0" stop-color="#e4ccff"/><stop offset="1" stop-color="#e4ccff" stop-opacity="0"/></radialGradient><radialGradient cx="240" cy="180" r="3.13691" gradientUnits="userSpaceOnUse" id="color-7"><stop offset="0" stop-color="#7700ff"/><stop offset="1" stop-color="#7700ff" stop-opacity="0"/></radialGradient><radialGradient cx="240" cy="180" r="1.5486" gradientUnits="userSpaceOnUse" id="color-8"><stop offset="0" stop-color="#ba7eff"/><stop offset="1" stop-color="#ba7eff" stop-opacity="0"/></radialGradient><radialGradient cx="240" cy="180" r="1.98538" gradientUnits="userSpaceOnUse" id="color-9"><stop offset="0" stop-color="#cb9dff"/><stop offset="1" stop-color="#cb9dff" stop-opacity="0"/></radialGradient></defs><g transform="translate(-236.86309,-176.86309)"><g data-paper-data="{&quot;isPaintingLayer&quot;:true}" fill-rule="nonzero" stroke="none" stroke-width="0" stroke-linecap="butt" stroke-linejoin="miter" stroke-miterlimit="10" stroke-dasharray="" stroke-dashoffset="0" style="mix-blend-mode: normal"><path d="M236.86309,180c0,-1.73246 1.40444,-3.13691 3.13691,-3.13691c1.73246,0 3.13691,1.40444 3.13691,3.13691c0,1.73246 -1.40444,3.13691 -3.13691,3.13691c-1.73246,0 -3.13691,-1.40444 -3.13691,-3.13691z" fill="url(#color-1)"/><path d="M238.31241,179.92307c0,-0.4235 0.75555,-0.76681 1.68758,-0.76681c0.93202,0 1.68758,0.34331 1.68758,0.76681c0,0.4235 -0.75555,0.76681 -1.68758,0.76681c-0.93202,0 -1.68758,-0.34331 -1.68758,-0.76681z" fill="url(#color-2)"/><path d="M236.86309,179.92307c0,0 1.40444,-1.42537 3.13691,-1.42537c1.73246,0 3.13691,1.42537 3.13691,1.42537c0,0 -1.40444,1.42537 -3.13691,1.42537c-1.73246,0 -3.13691,-1.42537 -3.13691,-1.42537z" fill="url(#color-3)"/><path d="M238.45139,179.92307c0,-0.38862 0.69333,-0.70366 1.5486,-0.70366c0.85527,0 1.5486,0.31504 1.5486,0.70366c0,0.38862 -0.69333,0.70366 -1.5486,0.70366c-0.85527,0 -1.5486,-0.31504 -1.5486,-0.70366z" fill="url(#color-4)"/><path d="M238.01461,179.92307c0,-0.49824 0.88889,-0.90213 1.98538,-0.90213c1.0965,0 1.98538,0.4039 1.98538,0.90213c0,0.49824 -0.88889,0.90213 -1.98538,0.90213c-1.0965,0 -1.98538,-0.4039 -1.98538,-0.90213z" fill="url(#color-5)"/><path d="M240,181.68758c-0.4235,0 -0.76681,-0.75555 -0.76682,-1.68758c0,-0.93202 0.34332,-1.68758 0.76681,-1.68758c0.4235,0 0.76682,0.75555 0.76682,1.68758c0,0.93202 -0.34331,1.68758 -0.76681,1.68758z" fill="url(#color-6)"/><path d="M240,183.13691c0,0 -1.42538,-1.40444 -1.42538,-3.13691c0,-1.73246 1.42538,-3.13691 1.42538,-3.13691c0,0 1.42537,1.40444 1.42537,3.13691c0,1.73246 -1.42537,3.13691 -1.42537,3.13691z" fill="url(#color-7)"/><path d="M240,181.5486c-0.38863,0 -0.70367,-0.69333 -0.70367,-1.5486c0,-0.85527 0.31504,-1.5486 0.70367,-1.5486c0.38862,0 0.70366,0.69333 0.70366,1.5486c0,0.85527 -0.31504,1.5486 -0.70366,1.5486z" fill="url(#color-8)"/><path d="M240,181.98538c-0.49824,0 -0.90213,-0.88889 -0.90214,-1.98538c0,-1.0965 0.40391,-1.98538 0.90214,-1.98538c0.49824,0 0.90213,0.88889 0.90213,1.98538c0,1.0965 -0.4039,1.98538 -0.90213,1.98538z" fill="url(#color-9)"/></g></g></svg>